<svg width="90" height="90" viewBox="0 0 90 90" fill="none" xmlns="http://www.w3.org/2000/svg">
<path d="M68.51 89.5H21.99C10.4 89.5 1 80.1 1 68.51V21.99C1 10.4 10.4 1 21.99 1H68.51C80.1 1 89.5 10.4 89.5 21.99V68.51C89.5 80.11 80.1 89.5 68.51 89.5Z" fill="#4B2B12" stroke="#3D2009" stroke-miterlimit="10"/>
<path d="M74.5302 29.5C74.5302 29.5 78.3602 34.83 81.6502 34.24C84.9402 33.65 74.8602 26.1 73.4402 25.15C73.4402 25.15 80.4202 30.28 81.7602 28.99C82.9802 27.82 67.6002 16.12 44.5802 15.78C42.0202 15.74 39.4602 16.09 37.0402 16.93C32.5402 18.63 29.2702 22.21 27.3102 27.74C24.1202 37.25 23.3802 41.76 26.0002 54.51C26.0002 54.51 27.9302 58.28 20.3602 65.05C20.3602 65.05 18.2602 67.6 19.7902 69.47C21.3302 71.34 26.9002 68.92 28.2302 67.85C28.2302 67.85 25.6302 72.87 31.1002 74.82C36.5702 76.77 40.6102 71.6 40.6102 71.6C40.6102 71.6 42.0702 77.4 48.9902 78.99C55.9102 80.58 58.1702 73.01 58.1702 73.01C58.1702 73.01 64.3802 84.03 74.3602 77.01C74.3602 77.01 75.9502 76.25 72.2102 73.16C68.2202 69.54 71.2502 62.25 71.2502 62.25C71.2502 62.25 79.3402 38.26 74.5302 29.5Z" fill="#FBFDFF" stroke="#AFB1B3" stroke-miterlimit="10"/>
<path d="M33.3701 33.33C38.3738 33.33 42.4301 29.2737 42.4301 24.27C42.4301 19.2663 38.3738 15.21 33.3701 15.21C28.3664 15.21 24.3101 19.2663 24.3101 24.27C24.3101 29.2737 28.3664 33.33 33.3701 33.33Z" fill="white" stroke="black" stroke-miterlimit="10"/>
<path d="M35.22 30.52C38.1029 30.52 40.44 28.1829 40.44 25.3C40.44 22.4171 38.1029 20.08 35.22 20.08C32.3371 20.08 30 22.4171 30 25.3C30 28.1829 32.3371 30.52 35.22 30.52Z" fill="black"/>
<path d="M36.1901 23.83C37.0793 23.83 37.8001 23.1092 37.8001 22.22C37.8001 21.3308 37.0793 20.61 36.1901 20.61C35.3009 20.61 34.5801 21.3308 34.5801 22.22C34.5801 23.1092 35.3009 23.83 36.1901 23.83Z" fill="white"/>
<path d="M33.6902 29.9C34.0879 29.9 34.4102 29.5776 34.4102 29.18C34.4102 28.7823 34.0879 28.46 33.6902 28.46C33.2926 28.46 32.9702 28.7823 32.9702 29.18C32.9702 29.5776 33.2926 29.9 33.6902 29.9Z" fill="white"/>
<path opacity="0.41" d="M37.3201 32.27C35.3701 33.23 33.0701 33.47 30.8301 32.79C26.1401 31.36 23.5001 26.41 24.9201 21.72C25.9001 18.49 28.5701 16.23 31.6601 15.6C31.6601 15.6 25.3301 19.13 25.9101 24.32C26.4901 29.51 29.8901 31.14 31.2301 31.88C32.7601 32.72 36.2501 32.78 37.3201 32.27Z" fill="#D2E3F0"/>
<path d="M33.3701 33.24C38.3738 33.24 42.4301 29.1837 42.4301 24.18C42.4301 19.1763 38.3738 15.12 33.3701 15.12C28.3664 15.12 24.3101 19.1763 24.3101 24.18C24.3101 29.1837 28.3664 33.24 33.3701 33.24Z" stroke="black" stroke-miterlimit="10"/>
<path d="M47.6904 41.72C53.0862 41.72 57.4604 37.3458 57.4604 31.95C57.4604 26.5542 53.0862 22.18 47.6904 22.18C42.2946 22.18 37.9204 26.5542 37.9204 31.95C37.9204 37.3458 42.2946 41.72 47.6904 41.72Z" fill="white" stroke="black" stroke-miterlimit="10"/>
<path d="M48.1105 37.89C51.2198 37.89 53.7405 35.3693 53.7405 32.26C53.7405 29.1506 51.2198 26.63 48.1105 26.63C45.0011 26.63 42.4805 29.1506 42.4805 32.26C42.4805 35.3693 45.0011 37.89 48.1105 37.89Z" fill="black"/>
<path d="M50.1902 31.2C51.1512 31.2 51.9302 30.4209 51.9302 29.46C51.9302 28.499 51.1512 27.72 50.1902 27.72C49.2292 27.72 48.4502 28.499 48.4502 29.46C48.4502 30.4209 49.2292 31.2 50.1902 31.2Z" fill="white"/>
<path d="M45.7104 36.82C46.1357 36.82 46.4804 36.4753 46.4804 36.05C46.4804 35.6247 46.1357 35.28 45.7104 35.28C45.2852 35.28 44.9404 35.6247 44.9404 36.05C44.9404 36.4753 45.2852 36.82 45.7104 36.82Z" fill="white"/>
<path opacity="0.41" d="M51.9602 40.57C49.8602 41.6 47.3802 41.87 44.9702 41.13C39.9202 39.59 37.0702 34.25 38.6102 29.2C39.6702 25.72 42.5402 23.28 45.8702 22.61C45.8702 22.61 39.0502 26.42 39.6802 32C40.3102 37.59 43.9702 39.35 45.4102 40.15C47.0402 41.05 50.8002 41.11 51.9602 40.57Z" fill="#D2E3F0"/>
<path d="M47.7002 41.62C53.096 41.62 57.4702 37.2458 57.4702 31.85C57.4702 26.4542 53.096 22.08 47.7002 22.08C42.3044 22.08 37.9302 26.4542 37.9302 31.85C37.9302 37.2458 42.3044 41.62 47.7002 41.62Z" stroke="black" stroke-miterlimit="10"/>
<path d="M51.4602 18.15C51.4602 18.15 51.0102 15.99 53.5102 15.88C53.5102 15.88 59.7402 17.04 57.3002 22.65C57.2902 22.65 55.0602 18.41 51.4602 18.15Z" fill="#010000"/>
<path d="M42.4604 14.32C42.4604 14.32 44.3204 13.47 43.0504 11.54C43.0504 11.54 38.7804 7.49999 35.9004 12.4C35.9004 12.4 40.2904 11.76 42.4604 14.32Z" fill="#010000"/>
<path d="M22.5302 47.17C22.5202 47.14 22.5002 47.11 22.4702 47.1C21.8502 46.95 16.0102 45.5 14.1902 44.95C12.2702 44.37 9.03022 46.95 8.19022 49.28C8.19022 49.28 4.44022 39.95 9.10022 35.95C9.10022 35.95 11.6802 33.53 16.1002 32.78C20.5102 32.03 24.3502 30.36 24.3502 30.36C24.3502 30.36 28.4302 28.28 31.6002 32.44C34.7702 36.6 36.4402 40.43 44.2702 43.43C44.2702 43.43 49.4402 44.26 46.3602 50.34C43.2802 56.42 25.0202 59.64 19.0702 55.79C19.0602 55.79 23.9202 55.6 22.5302 47.17Z" fill="#FED119" stroke="#B25900" stroke-miterlimit="10"/>
<path d="M22.52 47.11C22.52 47.11 34.18 52.69 43.68 45.35" stroke="#B25900" stroke-miterlimit="10" stroke-linecap="round"/>
<path d="M42.27 43.93C42.27 43.93 44.19 44.51 44.85 47.18" stroke="#B25900" stroke-miterlimit="10" stroke-linecap="round"/>
<path d="M25.2202 48.09C25.2202 48.09 25.7802 51.61 22.7002 54.86C22.7002 54.86 38.6702 54.56 41.3002 46.91C41.3002 46.91 34.8202 51.23 25.2202 48.09Z" fill="#540020"/>
<path d="M29.1703 49.02C29.1703 49.02 25.7703 51.52 24.2803 54.77L29.5103 54.07L35.3903 52.33L38.1403 50.83L40.4903 48.55L41.3103 46.91L38.6603 48.09L35.6603 48.94L32.8703 49.23L30.3303 49.16L29.1703 49.02Z" fill="#ED6D6E"/>
<path d="M25.2202 48.09C25.2202 48.09 25.7802 51.61 22.7002 54.86C22.7002 54.86 38.5402 54.56 41.2702 47.01C41.2802 46.98 41.2502 46.95 41.2202 46.97C40.4502 47.43 34.2102 51.03 25.2202 48.09Z" stroke="#B25900" stroke-miterlimit="10" stroke-linecap="round"/>
<path d="M31.6904 49.77C31.6904 49.77 29.4404 50.69 28.6904 51.94" stroke="#CF4F50" stroke-miterlimit="10" stroke-linecap="round"/>
<path opacity="0.3" d="M26.1802 34.86C26.1802 34.86 28.5102 32.86 29.5102 34.03C30.5202 35.19 26.6002 35.11 26.1802 34.86Z" fill="#C6A518" stroke="#B25900" stroke-miterlimit="10" stroke-linecap="round"/>
<path d="M26.1802 34.86C26.1802 34.86 28.5102 32.86 29.5102 34.03C30.5202 35.19 26.6002 35.11 26.1802 34.86Z" stroke="#B25900" stroke-miterlimit="10" stroke-linecap="round"/>
</svg>
