<svg width="342" height="241" viewBox="0 0 342 241" fill="none" xmlns="http://www.w3.org/2000/svg">
<g filter="url(#filter0_d_59_2)">
<path d="M245.893 118.608H33.9519C25.8568 118.608 19.2952 109.126 19.2952 97.4306V84.8376C19.2952 73.1425 25.8568 63.6598 33.9519 63.6598H245.893C236.199 78.9727 236.03 102.372 245.503 117.971L245.893 118.608Z" fill="#F19A2D"/>
<path d="M242.924 69.9542H136.271C128.928 69.9542 122.973 79.4369 122.973 91.1319C122.973 102.827 128.928 112.31 136.271 112.31H242.932C237.95 99.322 237.958 82.9159 242.924 69.9542Z" fill="#FAE0B2"/>
<path d="M236.349 3.58804C236.814 2.31703 236.109 0.846436 235.036 0.846436H66.2479C53.0185 0.846436 42.2949 14.9404 42.2949 32.3312C42.2949 49.7176 53.0185 63.8116 66.2479 63.8116H235.082C236.161 63.8116 236.866 62.3324 236.398 61.0571C229.713 42.8594 229.73 21.7033 236.349 3.58804Z" fill="#FFC700"/>
<path d="M235.003 7.62228H121.756C113.391 7.62228 106.609 18.4238 106.609 31.7456V33.5545C106.609 46.8763 113.391 57.6778 121.756 57.6778H235.246C230.171 41.6361 230.114 23.6553 235.003 7.62228Z" fill="#FAE0B2"/>
<path d="M163.637 32.8474H151.979C149.473 32.8474 147.441 34.0837 147.441 35.615V35.8623H163.637V32.8474Z" fill="#FF4C16"/>
<path d="M173.579 39.7838C173.579 35.9534 170.534 32.8474 166.78 32.8474H151.821C154.67 32.8474 156.977 35.2029 156.977 38.1093L156.907 112.453L165.173 102.892L173.598 112.453L173.579 39.7838Z" fill="#F47458"/>
<path d="M333.035 118.5H18.1104C8.33203 118.5 0.403076 131.128 0.403076 146.701V170.421C0.403076 185.994 8.33203 198.622 18.1104 198.622H333.035L332.869 198.348C319.397 176.012 319.471 140.688 333.035 118.5Z" fill="#E95A4D"/>
<path d="M327.459 130.36H159.107C149.329 130.36 141.4 142.988 141.4 158.561C141.4 174.134 149.329 186.762 159.107 186.762H327.457C321.268 169.297 321.279 147.807 327.459 130.36Z" fill="#FAE0B2"/>
<path d="M244.801 158.704H231.149C228.213 158.704 225.832 162.495 225.832 167.172V167.931H244.801V158.704Z" fill="#13375B"/>
<path d="M231.705 158.739C234.968 158.734 239.841 163.133 242.589 168.564L274.972 232.527L293.992 232.51L263.194 171.679C259.572 164.521 253.146 158.721 248.843 158.726L231.705 158.739Z" fill="#355389"/>
</g>
<defs>
<filter id="filter0_d_59_2" x="0.403076" y="0.846436" width="340.632" height="239.681" filterUnits="userSpaceOnUse" color-interpolation-filters="sRGB">
<feFlood flood-opacity="0" result="BackgroundImageFix"/>
<feColorMatrix in="SourceAlpha" type="matrix" values="0 0 0 0 0 0 0 0 0 0 0 0 0 0 0 0 0 0 127 0" result="hardAlpha"/>
<feOffset dx="4" dy="4"/>
<feGaussianBlur stdDeviation="2"/>
<feComposite in2="hardAlpha" operator="out"/>
<feColorMatrix type="matrix" values="0 0 0 0 0 0 0 0 0 0 0 0 0 0 0 0 0 0 0.25 0"/>
<feBlend mode="normal" in2="BackgroundImageFix" result="effect1_dropShadow_59_2"/>
<feBlend mode="normal" in="SourceGraphic" in2="effect1_dropShadow_59_2" result="shape"/>
</filter>
</defs>
</svg>
