<svg width="302" height="214" viewBox="0 0 302 214" fill="none" xmlns="http://www.w3.org/2000/svg">
<g filter="url(#filter0_d_59_1616)">
<path fill-rule="evenodd" clip-rule="evenodd" d="M254.765 0.568848C278.648 0.568848 298 15.3773 298 33.6382V126.232C298 144.493 278.648 159.302 254.765 159.302H159.647L90.4706 205.599V159.302H47.2353C23.3521 159.302 4.00001 144.493 4.00001 126.232V33.6382C4.00001 15.3773 23.3521 0.568848 47.2353 0.568848H254.765Z" fill="white"/>
<path d="M159.369 158.886L159.495 158.802H159.647H254.765C266.606 158.802 277.306 155.13 285.035 149.218C292.763 143.306 297.5 135.174 297.5 126.232V33.6382C297.5 24.6962 292.763 16.5648 285.035 10.6528C277.306 4.74051 266.606 1.06885 254.765 1.06885H47.2353C35.3938 1.06885 24.694 4.74051 16.9653 10.6528C9.23697 16.5648 4.5 24.6962 4.5 33.6382V126.232C4.5 135.174 9.23697 143.306 16.9653 149.218C24.694 155.13 35.3938 158.802 47.2353 158.802H90.4706H90.9706V159.302V204.662L159.369 158.886Z" stroke="#DADADA"/>
</g>
<defs>
<filter id="filter0_d_59_1616" x="0" y="0.568848" width="302" height="213.03" filterUnits="userSpaceOnUse" color-interpolation-filters="sRGB">
<feFlood flood-opacity="0" result="BackgroundImageFix"/>
<feColorMatrix in="SourceAlpha" type="matrix" values="0 0 0 0 0 0 0 0 0 0 0 0 0 0 0 0 0 0 127 0" result="hardAlpha"/>
<feOffset dy="4"/>
<feGaussianBlur stdDeviation="2"/>
<feComposite in2="hardAlpha" operator="out"/>
<feColorMatrix type="matrix" values="0 0 0 0 0 0 0 0 0 0 0 0 0 0 0 0 0 0 0.25 0"/>
<feBlend mode="normal" in2="BackgroundImageFix" result="effect1_dropShadow_59_1616"/>
<feBlend mode="normal" in="SourceGraphic" in2="effect1_dropShadow_59_1616" result="shape"/>
</filter>
</defs>
</svg>
