<svg width="154" height="166" viewBox="0 0 154 166" fill="none" xmlns="http://www.w3.org/2000/svg">
<path d="M87.0973 137.476L83.7873 146.436C83.7873 146.436 67.1673 141.756 67.4473 146.246C67.7273 150.736 70.8973 148.826 70.8973 148.826C70.8973 148.826 68.5373 150.076 68.4673 150.806C68.3973 151.536 68.8973 153.826 74.8673 153.696C74.8673 153.696 71.9073 157.286 76.0273 158.736C76.0273 158.736 77.2773 159.156 78.9373 157.466C80.5973 155.776 83.8473 153.136 88.2573 153.586C88.2573 153.586 95.4673 155.816 97.3173 152.286C99.1673 148.756 88.8673 147.706 88.8673 147.706L93.5273 138.516L87.0973 137.476Z" fill="#F0A823" stroke="#C67100" stroke-miterlimit="10"/>
<path d="M74.8574 153.706C74.8574 153.706 78.8374 151.136 81.0474 151.366" stroke="#C67100" stroke-miterlimit="10" stroke-linecap="round"/>
<path d="M70.8076 148.886C70.8076 148.886 72.5976 146.806 82.1576 147.776" stroke="#C67100" stroke-miterlimit="10" stroke-linecap="round"/>
<path d="M64.3574 147.086C64.3574 147.086 66.2374 143.216 70.8774 144.176C71.2874 144.256 71.5974 144.556 71.6974 144.966C71.8474 145.586 71.7574 146.536 70.3174 147.296C67.9574 148.536 64.3574 147.086 64.3574 147.086Z" fill="#FBFDFF" stroke="#AFB1B3" stroke-miterlimit="10"/>
<path d="M64.7075 151.176C64.7075 151.176 66.9875 148.136 70.9075 148.136C71.3575 148.136 71.7275 148.526 71.6875 148.976C71.6475 149.496 71.5175 150.186 71.1975 150.736C70.5975 151.776 64.7075 151.176 64.7075 151.176Z" fill="#FBFDFF" stroke="#AFB1B3" stroke-miterlimit="10"/>
<path d="M70.7876 157.876C70.7876 157.876 71.1876 153.326 74.8676 153.706C74.8676 153.706 76.2176 154.236 75.6876 156.216C75.1476 158.196 70.7876 157.876 70.7876 157.876Z" fill="#FBFDFF" stroke="#AFB1B3" stroke-miterlimit="10"/>
<path d="M101.647 153.476C101.647 153.476 99.8175 149.566 95.3275 149.856C95.3275 149.856 94.1475 151.256 95.6575 152.506C97.1575 153.756 101.647 153.476 101.647 153.476Z" fill="#FBFDFF" stroke="#AFB1B3" stroke-miterlimit="10"/>
<path d="M107.427 143.056L105.047 152.306C105.047 152.306 88.0374 149.346 88.7774 153.786C89.5174 158.226 92.4774 156.006 92.4774 156.006C92.4774 156.006 90.2574 157.486 90.2574 158.226C90.2574 158.966 90.9974 161.186 96.9174 160.446C96.9174 160.446 94.3374 164.316 98.5874 165.336C98.5874 165.336 99.8774 165.626 101.357 163.776C102.837 161.926 105.797 158.966 110.237 158.966C110.237 158.966 117.637 160.446 119.117 156.746C120.597 153.046 110.237 153.046 110.237 153.046L113.937 143.426L107.427 143.056Z" fill="#F0A823" stroke="#C67100" stroke-miterlimit="10"/>
<path d="M96.9077 160.446C96.9077 160.446 100.608 157.486 102.828 157.486" stroke="#C67100" stroke-miterlimit="10" stroke-linecap="round"/>
<path d="M92.3877 156.066C92.3877 156.066 93.9477 153.816 103.568 153.806" stroke="#C67100" stroke-miterlimit="10" stroke-linecap="round"/>
<path d="M85.7876 154.926C85.7876 154.926 87.2676 150.886 91.9776 151.366C92.3876 151.406 92.7376 151.676 92.8776 152.066C93.0876 152.666 93.0976 153.616 91.7476 154.516C89.5076 156.006 85.7876 154.926 85.7876 154.926Z" fill="#FBFDFF" stroke="#AFB1B3" stroke-miterlimit="10"/>
<path d="M86.5576 158.966C86.5576 158.966 88.5076 155.706 92.4176 155.306C92.8676 155.256 93.2676 155.606 93.2776 156.066C93.2876 156.596 93.2376 157.286 92.9676 157.866C92.4676 158.966 86.5576 158.966 86.5576 158.966Z" fill="#FBFDFF" stroke="#AFB1B3" stroke-miterlimit="10"/>
<path d="M93.2774 165.016C93.2774 165.016 93.2074 160.446 96.9074 160.446C96.9074 160.446 98.2974 160.836 97.9774 162.866C97.6474 164.876 93.2774 165.016 93.2774 165.016Z" fill="#FBFDFF" stroke="#AFB1B3" stroke-miterlimit="10"/>
<path d="M123.528 157.486C123.528 157.486 121.308 153.786 116.878 154.526C116.878 154.526 115.848 156.046 117.478 157.136C119.098 158.226 123.528 157.486 123.528 157.486Z" fill="#FBFDFF" stroke="#AFB1B3" stroke-miterlimit="10"/>
<path d="M116.558 141.776C116.558 141.776 129.818 157.476 140.728 160.436C151.638 163.396 119.438 136.026 119.438 136.026L116.558 141.776Z" fill="#FBFDFF" stroke="#AFB1B3" stroke-miterlimit="10"/>
<path d="M120.048 138.496C120.048 138.496 136.848 164.876 147.948 161.926C159.038 158.966 123.948 134.436 123.948 134.436L120.048 138.496Z" fill="#FBFDFF" stroke="#AFB1B3" stroke-miterlimit="10"/>
<path d="M125.028 136.036C125.028 136.036 142.018 161.926 150.898 163.406C159.778 164.886 133.148 131.606 133.148 131.606L124.268 133.086L125.028 136.036Z" fill="#FBFDFF" stroke="#AFB1B3" stroke-miterlimit="10"/>
<path d="M82.8573 127.156C82.8573 127.156 82.2173 139.016 89.5673 139.746C96.9173 140.476 101.357 133.076 101.357 133.076L82.8573 127.156Z" fill="#4B2B12" stroke="#3D2009" stroke-miterlimit="10"/>
<path d="M103.567 136.036C103.567 136.036 103.567 142.696 110.227 144.176C116.887 145.656 121.317 136.776 121.317 136.776L103.567 136.036Z" fill="#4B2B12" stroke="#3D2009" stroke-miterlimit="10"/>
<path d="M64.3676 66.5056C64.3676 66.5056 49.5775 75.3856 30.3475 63.5456C11.1175 51.7156 5.93755 47.2756 2.97755 49.4956C0.0175459 51.7156 14.0675 64.2856 14.0675 64.2856C14.0675 64.2856 -2.20245 56.1456 1.49755 64.2856C5.19755 72.4256 16.2876 74.6356 16.2876 74.6356C16.2876 74.6356 0.0175482 71.6756 2.23755 78.3356C2.23755 78.3356 2.97755 82.0356 15.5475 82.0356C15.5475 82.0356 4.45755 82.7756 7.40755 87.9556C10.3575 93.1356 24.4175 90.9156 24.4175 90.9156C24.4175 90.9156 12.5876 92.3956 15.5376 96.8356C18.4976 101.276 32.6476 98.5656 32.6476 98.5656C32.6476 98.5656 23.6776 101.276 25.8976 105.716C28.1176 110.156 42.9075 106.456 42.9075 106.456C42.9075 106.456 34.7675 110.156 36.9875 113.856C39.2076 117.556 51.0376 113.116 51.0376 113.116C51.0376 113.116 46.5975 116.076 48.0775 119.036C49.5575 121.996 60.6476 121.996 67.3076 113.856L70.2675 65.7756L64.3676 66.5056Z" fill="#4B2B12" stroke="#3D2009" stroke-miterlimit="10"/>
<path d="M64.3673 67.2456C64.3673 67.2456 38.4773 116.806 103.567 137.516C168.657 158.226 92.4773 28.0456 92.4773 28.0456L64.3673 67.2456Z" fill="#4B2B12" stroke="#3D2009" stroke-miterlimit="10"/>
<path d="M138.328 107.186C138.328 107.186 140.548 90.1756 112.438 80.5556C112.438 80.5556 79.1976 76.9956 91.4176 104.966C94.5876 112.226 99.5976 118.516 105.788 123.446C114.778 130.606 130.238 140.126 147.198 138.246C147.198 138.246 150.158 138.246 150.158 135.286C150.158 132.326 144.978 130.106 144.978 130.106C144.978 130.106 147.938 124.186 140.538 121.966C140.538 121.966 143.498 117.526 139.058 115.306C139.068 115.326 142.028 110.886 138.328 107.186Z" fill="#4B2B12" stroke="#3D2009" stroke-miterlimit="10"/>
<path d="M122.058 23.3956C122.058 23.3956 126.648 29.7756 130.588 29.0756C134.528 28.3756 122.448 19.3156 120.748 18.1856C120.748 18.1856 129.118 24.3356 130.718 22.7956C132.178 21.3956 113.748 7.36558 86.1577 6.96558C83.0877 6.91558 80.0177 7.33559 77.1277 8.34559C71.7277 10.3856 67.8177 14.6656 65.4677 21.2956C61.6477 32.6956 60.7577 38.0856 63.8877 53.3656C63.8877 53.3656 66.1977 57.8856 57.1277 65.9956C57.1277 65.9956 54.6077 69.0556 56.4477 71.2956C58.2877 73.5356 64.9677 70.6356 66.5577 69.3556C66.5577 69.3556 63.4377 75.3756 69.9977 77.7056C76.5577 80.0356 81.3977 73.8456 81.3977 73.8456C81.3977 73.8456 83.1477 80.7956 91.4377 82.6956C99.7277 84.5956 102.438 75.5256 102.438 75.5256C102.438 75.5256 109.878 88.7256 121.838 80.3256C121.838 80.3256 123.748 79.4256 119.258 75.7156C114.468 71.3756 118.108 62.6356 118.108 62.6356C118.108 62.6356 127.818 33.8856 122.058 23.3956Z" fill="#FBFDFF" stroke="#AFB1B3" stroke-miterlimit="10"/>
<path d="M72.7277 27.9956C78.7255 27.9956 83.5877 23.1334 83.5877 17.1356C83.5877 11.1378 78.7255 6.27557 72.7277 6.27557C66.7299 6.27557 61.8677 11.1378 61.8677 17.1356C61.8677 23.1334 66.7299 27.9956 72.7277 27.9956Z" fill="white" stroke="black" stroke-miterlimit="10"/>
<path d="M74.9475 24.6256C78.4048 24.6256 81.2075 21.8229 81.2075 18.3656C81.2075 14.9083 78.4048 12.1056 74.9475 12.1056C71.4902 12.1056 68.6875 14.9083 68.6875 18.3656C68.6875 21.8229 71.4902 24.6256 74.9475 24.6256Z" fill="black"/>
<path d="M76.1077 16.6056C77.1736 16.6056 78.0377 15.7415 78.0377 14.6756C78.0377 13.6097 77.1736 12.7456 76.1077 12.7456C75.0418 12.7456 74.1777 13.6097 74.1777 14.6756C74.1777 15.7415 75.0418 16.6056 76.1077 16.6056Z" fill="white"/>
<path d="M73.1076 23.8756C73.5825 23.8756 73.9676 23.4905 73.9676 23.0156C73.9676 22.5406 73.5825 22.1556 73.1076 22.1556C72.6326 22.1556 72.2476 22.5406 72.2476 23.0156C72.2476 23.4905 72.6326 23.8756 73.1076 23.8756Z" fill="white"/>
<path opacity="0.41" d="M77.4675 26.7256C75.1375 27.8756 72.3775 28.1656 69.6875 27.3556C64.0675 25.6456 60.8975 19.7056 62.6075 14.0856C63.7875 10.2156 66.9775 7.50558 70.6875 6.75558C70.6875 6.75558 63.0975 10.9856 63.7975 17.1956C64.4975 23.4056 68.5675 25.3756 70.1675 26.2556C71.9975 27.2456 76.1875 27.3256 77.4675 26.7256Z" fill="#D2E3F0"/>
<path d="M72.7374 27.8756C78.7353 27.8756 83.5974 23.0134 83.5974 17.0156C83.5974 11.0178 78.7353 6.15558 72.7374 6.15558C66.7396 6.15558 61.8774 11.0178 61.8774 17.0156C61.8774 23.0134 66.7396 27.8756 72.7374 27.8756Z" stroke="black" stroke-miterlimit="10"/>
<path d="M89.8875 38.0356C96.3492 38.0356 101.588 32.7973 101.588 26.3356C101.588 19.8739 96.3492 14.6356 89.8875 14.6356C83.4258 14.6356 78.1875 19.8739 78.1875 26.3356C78.1875 32.7973 83.4258 38.0356 89.8875 38.0356Z" fill="white" stroke="black" stroke-miterlimit="10"/>
<path d="M90.3975 33.4556C94.1254 33.4556 97.1475 30.4335 97.1475 26.7056C97.1475 22.9776 94.1254 19.9556 90.3975 19.9556C86.6695 19.9556 83.6475 22.9776 83.6475 26.7056C83.6475 30.4335 86.6695 33.4556 90.3975 33.4556Z" fill="black"/>
<path d="M92.8774 25.4256C94.0261 25.4256 94.9574 24.4943 94.9574 23.3456C94.9574 22.1968 94.0261 21.2656 92.8774 21.2656C91.7286 21.2656 90.7974 22.1968 90.7974 23.3456C90.7974 24.4943 91.7286 25.4256 92.8774 25.4256Z" fill="white"/>
<path d="M87.5177 32.1656C88.0258 32.1656 88.4377 31.7537 88.4377 31.2456C88.4377 30.7375 88.0258 30.3256 87.5177 30.3256C87.0096 30.3256 86.5977 30.7375 86.5977 31.2456C86.5977 31.7537 87.0096 32.1656 87.5177 32.1656Z" fill="white"/>
<path opacity="0.41" d="M94.9976 36.6656C92.4776 37.8956 89.5076 38.2156 86.6176 37.3356C80.5676 35.4956 77.1476 29.0856 78.9876 23.0356C80.2576 18.8656 83.6976 15.9456 87.6876 15.1356C87.6876 15.1356 79.5076 19.6956 80.2676 26.3956C81.0176 33.0856 85.4076 35.2056 87.1376 36.1556C89.1076 37.2356 93.6176 37.3156 94.9976 36.6656Z" fill="#D2E3F0"/>
<path d="M89.8973 37.9056C96.359 37.9056 101.597 32.6673 101.597 26.2056C101.597 19.7439 96.359 14.5056 89.8973 14.5056C83.4355 14.5056 78.1973 19.7439 78.1973 26.2056C78.1973 32.6673 83.4355 37.9056 89.8973 37.9056Z" stroke="black" stroke-miterlimit="10"/>
<path d="M94.3976 9.79556C94.3976 9.79556 93.8676 7.20556 96.8576 7.07556C96.8576 7.07556 104.318 8.46557 101.398 15.1956C101.398 15.1956 98.7276 10.1156 94.3976 9.79556Z" fill="#010000"/>
<path d="M83.6273 5.20558C83.6273 5.20558 85.8573 4.19558 84.3273 1.87558C84.3273 1.87558 79.2073 -2.96442 75.7573 2.90558C75.7573 2.90558 81.0273 2.13558 83.6273 5.20558Z" fill="#010000"/>
<path d="M59.7476 44.5656C59.7376 44.5256 59.7176 44.4856 59.6776 44.4756C58.9376 44.2956 51.9276 42.5656 49.7576 41.8956C47.4576 41.1956 43.5676 44.2956 42.5776 47.0856C42.5776 47.0856 38.0776 35.9056 43.6676 31.1156C43.6676 31.1156 46.7576 28.2156 52.0476 27.3156C57.3376 26.4156 61.9276 24.4156 61.9276 24.4156C61.9276 24.4156 66.8176 21.9156 70.6176 26.9056C74.4176 31.8956 76.4076 36.4856 85.7976 40.0756C85.7976 40.0756 91.9876 41.0756 88.2976 48.3556C84.6076 55.6456 62.7276 59.4956 55.5976 54.8856C55.5876 54.9056 61.4076 54.6756 59.7476 44.5656Z" fill="#FED119" stroke="#B25900" stroke-miterlimit="10"/>
<path d="M59.7378 44.4956C59.7378 44.4956 73.7178 51.1756 85.0878 42.3856" stroke="#B25900" stroke-miterlimit="10" stroke-linecap="round"/>
<path d="M83.3877 40.6956C83.3877 40.6956 85.6877 41.3956 86.4877 44.5856" stroke="#B25900" stroke-miterlimit="10" stroke-linecap="round"/>
<path d="M62.9575 45.6756C62.9575 45.6756 63.6275 49.8856 59.9375 53.7856C59.9375 53.7856 79.0775 53.4256 82.2275 44.2656C82.2275 44.2556 74.4675 49.4356 62.9575 45.6756Z" fill="#540020"/>
<path d="M67.6974 46.7856C67.6974 46.7856 63.6274 49.7856 61.8374 53.6756L68.1074 52.8456L75.1574 50.7556L78.4474 48.9556L81.2574 46.2256L82.2374 44.2556L79.0674 45.6656L75.4674 46.6856L72.1174 47.0356L69.0674 46.9456L67.6974 46.7856Z" fill="#ED6D6E"/>
<path d="M62.9575 45.6756C62.9575 45.6756 63.6275 49.8856 59.9375 53.7856C59.9375 53.7856 78.9175 53.4256 82.1875 44.3756C82.1975 44.3356 82.1675 44.3056 82.1275 44.3256C81.2175 44.8856 73.7275 49.1956 62.9575 45.6756Z" stroke="#B25900" stroke-miterlimit="10" stroke-linecap="round"/>
<path d="M70.7174 47.6856C70.7174 47.6856 68.0274 48.7856 67.1274 50.2856" stroke="#CF4F50" stroke-miterlimit="10" stroke-linecap="round"/>
<path opacity="0.3" d="M64.1177 29.8156C64.1177 29.8156 66.9077 27.4156 68.1077 28.8156C69.3077 30.2156 64.6177 30.1156 64.1177 29.8156Z" fill="#C6A518" stroke="#B25900" stroke-miterlimit="10" stroke-linecap="round"/>
<path d="M64.1177 29.8156C64.1177 29.8156 66.9077 27.4156 68.1077 28.8156C69.3077 30.2156 64.6177 30.1156 64.1177 29.8156Z" stroke="#B25900" stroke-miterlimit="10" stroke-linecap="round"/>
</svg>
