<svg width="293" height="148" viewBox="0 0 293 148" fill="none" xmlns="http://www.w3.org/2000/svg">
<path d="M136.878 105.706C136.878 105.706 133.798 139.156 142.628 139.956C151.458 140.756 149.048 119.876 149.048 119.876L145.028 97.3857L136.878 105.706Z" fill="#FBFDFF" stroke="#AFB1B3" stroke-miterlimit="10"/>
<path d="M144.238 102.216C144.238 102.216 141.828 145.586 157.888 146.386C173.948 147.186 146.328 91.9857 146.328 91.9857L144.238 102.216Z" fill="#FBFDFF" stroke="#AFB1B3" stroke-miterlimit="10"/>
<path d="M150.658 98.9957C150.658 98.9957 157.078 136.746 162.708 142.366C168.338 147.986 174.268 148.966 176.358 144.776C177.968 141.566 173.948 134.336 173.948 134.336C173.948 134.336 157.888 103.816 157.888 98.1957C157.888 92.5757 150.658 98.9957 150.658 98.9957Z" fill="#FBFDFF" stroke="#AFB1B3" stroke-miterlimit="10"/>
<path d="M138.598 89.5057C138.598 89.5057 134.178 106.336 138.758 109.866C139.148 110.166 139.678 110.206 140.128 110.026C141.508 109.486 144.418 107.696 145.028 102.216C145.028 102.216 146.288 108.656 148.198 110.056C148.378 110.186 148.618 110.126 148.728 109.936C149.238 109.006 150.648 106.016 150.648 101.416C150.648 101.416 156.268 108.646 157.878 108.646C159.488 108.646 157.878 95.6857 157.878 95.6857L138.598 89.5057Z" fill="#4B2B12" stroke="#3D2009" stroke-miterlimit="10"/>
<path d="M169.818 56.4657C169.818 56.4657 197.268 15.7757 230.888 10.8757C264.508 5.97568 292.438 9.46567 291.938 15.8057C291.438 22.1457 244.508 19.5057 242.528 15.4657C242.528 15.4657 279.558 28.8857 268.488 35.6057C268.488 35.6057 259.118 38.0957 241.478 27.7857C241.478 27.7857 268.088 50.8757 256.088 52.7957C256.088 52.7957 248.818 51.3757 234.798 37.2857C234.798 37.2857 250.618 58.5657 244.318 63.5457C238.018 68.5257 225.848 39.9457 225.848 39.9457C225.848 39.9457 236.398 67.7657 229.228 70.3657C222.068 72.9657 216.158 43.5157 216.158 43.5157C216.158 43.5157 224.248 70.7757 215.498 70.8557C206.748 70.9457 206.248 51.6757 206.248 51.6757C206.248 51.6757 210.048 74.0757 201.958 71.8757C193.868 69.6757 195.938 56.7657 195.938 56.7657C195.938 56.7657 197.728 76.9257 191.438 75.4157C185.138 73.9157 186.438 61.8257 186.438 61.8257C186.438 61.8257 184.408 73.8757 171.318 81.4757L169.818 56.4657Z" fill="#4B2B12" stroke="#3D2009" stroke-miterlimit="10"/>
<path d="M125.088 56.0157C125.088 56.0157 95.5582 16.8057 61.7282 13.6657C27.9082 10.5257 0.188167 15.4557 1.01817 21.7657C1.84817 28.0757 48.5782 22.9957 50.3482 18.8557C50.3482 18.8557 14.0582 34.1857 25.4682 40.3157C25.4682 40.3157 34.9482 42.3157 52.0382 31.1057C52.0382 31.1057 26.6682 55.5457 38.7582 56.8457C38.7582 56.8457 45.9382 55.0557 59.2182 40.2457C59.2182 40.2457 44.5282 62.3157 51.0782 66.9657C57.6282 71.6157 68.2982 42.4357 68.2982 42.4357C68.2982 42.4357 59.2082 70.7657 66.4982 72.9857C73.7882 75.2057 78.1482 45.4957 78.1482 45.4957C78.1482 45.4957 71.4882 73.1357 80.2282 72.7657C88.9682 72.3957 88.4682 53.1257 88.4682 53.1257C88.4682 53.1257 85.8382 75.6857 93.8082 73.0757C101.778 70.4557 99.0282 57.6757 99.0282 57.6757C99.0282 57.6757 98.2882 77.8957 104.498 76.0657C110.708 74.2357 108.788 62.2357 108.788 62.2357C108.788 62.2357 111.448 74.1657 124.908 81.0757L125.088 56.0157Z" fill="#4B2B12" stroke="#3D2009" stroke-miterlimit="10"/>
<path d="M155.668 97.2457C155.668 97.2457 160.408 99.7157 161.158 103.376C161.908 107.026 169.538 96.0657 169.538 96.0657L164.498 91.0457L155.668 97.2457Z" fill="#4B2B12" stroke="#3D2009" stroke-miterlimit="10"/>
<path d="M127.178 107.086C127.178 107.086 118.028 101.096 115.398 102.316C112.768 103.526 110.748 101.916 110.298 99.5657C109.848 97.2157 113.388 97.5357 113.388 97.5357L118.148 97.2157L127.178 107.086Z" fill="#F0A823" stroke="#C67100" stroke-miterlimit="10"/>
<path d="M127.608 98.3257C127.608 98.3257 126.978 102.396 125.538 100.026C124.098 97.6557 119.118 90.8957 118.208 91.0557C117.298 91.2157 113.048 94.4557 113.048 94.4557C113.048 94.4557 112.688 97.8157 114.218 98.3857C115.748 98.9557 123.448 101.786 126.648 107.326C129.848 112.866 133.148 113.106 134.228 112.686C135.308 112.266 135.638 110.206 130.328 105.626C130.328 105.626 127.818 102.956 132.028 101.016L129.558 97.0457L127.608 98.3257Z" fill="#F0A823" stroke="#C67100" stroke-miterlimit="10"/>
<path d="M127.058 94.3757C127.058 94.3757 126.918 96.8357 127.378 97.8257C127.838 98.8157 130.398 98.8257 131.538 101.296C132.678 103.766 139.048 95.4357 139.048 95.4357L127.058 94.3757Z" fill="#4B2B12" stroke="#3D2009" stroke-miterlimit="10"/>
<path d="M118.598 91.2557C118.598 91.2557 115.348 85.7357 108.958 91.8757C108.958 91.8757 108.438 92.7557 109.738 92.7957C111.038 92.8357 112.878 93.2557 113.058 94.4557C113.058 94.4557 116.658 95.3457 118.598 91.2557Z" fill="#FBFDFF" stroke="#AFB1B3" stroke-miterlimit="10"/>
<path d="M107.958 100.006C107.958 100.006 108.528 98.4657 110.628 97.4957C112.728 96.5257 113.668 98.7157 112.228 99.6657C111.468 100.166 110.828 100.176 110.388 100.076C109.918 99.9657 109.438 99.9657 108.958 100.056C108.648 100.106 108.278 100.116 107.958 100.006Z" fill="#FBFDFF" stroke="#AFB1B3" stroke-miterlimit="10"/>
<path d="M175.288 66.2057C175.288 66.2057 177.078 69.6557 176.658 71.5457C176.238 73.4357 174.068 68.6557 174.068 68.6557C174.068 68.6557 175.998 93.1857 152.248 100.506C128.498 107.826 117.928 79.4857 117.928 79.4857C117.928 79.4857 114.918 75.9057 118.178 60.8257L128.148 51.3957L151.578 58.9157L166.138 55.9957L174.328 62.2857L175.288 66.2057Z" fill="#4B2B12" stroke="#3D2009" stroke-miterlimit="10"/>
<path d="M166.298 10.2857C166.298 10.2857 171.208 15.1357 174.428 13.7557C177.648 12.3757 165.968 6.55567 164.338 5.86567C164.338 5.86567 172.408 9.7857 173.508 8.10569C174.508 6.5757 156.668 -2.4943 133.288 2.3557C130.688 2.89569 128.158 3.8457 125.878 5.2957C121.648 8.1457 119.038 12.7157 118.128 19.0957C116.748 30.0257 116.878 35.0257 122.008 48.1157C122.008 48.1157 124.698 51.7257 118.348 60.7057C118.348 60.7057 116.718 63.9257 118.638 65.5757C120.558 67.2357 125.728 63.3757 126.868 61.9257C126.868 61.9257 125.208 67.9057 131.128 68.7557C137.048 69.6057 140.138 63.1457 140.138 63.1457C140.138 63.1457 142.738 69.0457 150.058 69.1757C157.378 69.3057 158.188 60.6757 158.188 60.6757C158.188 60.6757 166.618 71.0957 175.358 61.3057C175.358 61.3057 176.818 60.1357 172.428 57.6657C167.678 54.6857 169.328 46.1757 169.328 46.1757C169.328 46.1757 172.878 18.5957 166.298 10.2857Z" fill="#FBFDFF" stroke="#AFB1B3" stroke-miterlimit="10"/>
<path d="M133.588 30.2457C138.641 30.2457 142.738 26.1491 142.738 21.0957C142.738 16.0423 138.641 11.9457 133.588 11.9457C128.535 11.9457 124.438 16.0423 124.438 21.0957C124.438 26.1491 128.535 30.2457 133.588 30.2457Z" fill="white" stroke="black" stroke-miterlimit="10"/>
<path d="M133.328 26.4557C136.244 26.4557 138.608 24.0918 138.608 21.1757C138.608 18.2596 136.244 15.8957 133.328 15.8957C130.412 15.8957 128.048 18.2596 128.048 21.1757C128.048 24.0918 130.412 26.4557 133.328 26.4557Z" fill="black"/>
<path d="M132.778 19.5857C133.678 19.5857 134.408 18.8559 134.408 17.9557C134.408 17.0555 133.678 16.3257 132.778 16.3257C131.878 16.3257 131.148 17.0555 131.148 17.9557C131.148 18.8559 131.878 19.5857 132.778 19.5857Z" fill="white"/>
<path d="M133.718 26.0857C134.116 26.0857 134.438 25.7633 134.438 25.3657C134.438 24.968 134.116 24.6457 133.718 24.6457C133.32 24.6457 132.998 24.968 132.998 25.3657C132.998 25.7633 133.32 26.0857 133.718 26.0857Z" fill="white"/>
<path opacity="0.41" d="M140.808 26.4857C139.488 28.2357 137.538 29.5157 135.208 29.9257C130.338 30.7857 125.688 27.5357 124.818 22.6657C124.218 19.3057 125.578 16.0557 128.078 14.0757C128.078 14.0757 123.998 20.1557 126.898 24.5557C129.798 28.9557 133.608 28.8757 135.148 28.9257C136.908 28.9757 140.078 27.4257 140.808 26.4857Z" fill="#D2E3F0"/>
<path d="M133.548 30.1557C138.601 30.1557 142.698 26.0591 142.698 21.0057C142.698 15.9523 138.601 11.8557 133.548 11.8557C128.495 11.8557 124.398 15.9523 124.398 21.0057C124.398 26.0591 128.495 30.1557 133.548 30.1557Z" stroke="black" stroke-miterlimit="10"/>
<path d="M154.048 30.2457C159.102 30.2457 163.198 26.1491 163.198 21.0957C163.198 16.0423 159.102 11.9457 154.048 11.9457C148.995 11.9457 144.898 16.0423 144.898 21.0957C144.898 26.1491 148.995 30.2457 154.048 30.2457Z" fill="white" stroke="black" stroke-miterlimit="10"/>
<path d="M153.788 26.4557C156.704 26.4557 159.068 24.0918 159.068 21.1757C159.068 18.2596 156.704 15.8957 153.788 15.8957C150.872 15.8957 148.508 18.2596 148.508 21.1757C148.508 24.0918 150.872 26.4557 153.788 26.4557Z" fill="black"/>
<path d="M154.328 19.5857C155.228 19.5857 155.958 18.8559 155.958 17.9557C155.958 17.0555 155.228 16.3257 154.328 16.3257C153.428 16.3257 152.698 17.0555 152.698 17.9557C152.698 18.8559 153.428 19.5857 154.328 19.5857Z" fill="white"/>
<path d="M153.388 26.0857C153.786 26.0857 154.108 25.7633 154.108 25.3657C154.108 24.968 153.786 24.6457 153.388 24.6457C152.991 24.6457 152.668 24.968 152.668 25.3657C152.668 25.7633 152.991 26.0857 153.388 26.0857Z" fill="white"/>
<path opacity="0.41" d="M161.278 26.4857C159.958 28.2357 158.008 29.5157 155.678 29.9257C150.808 30.7857 146.158 27.5357 145.288 22.6657C144.688 19.3057 146.048 16.0557 148.548 14.0757C148.548 14.0757 144.468 20.1557 147.368 24.5557C150.268 28.9557 154.078 28.8757 155.618 28.9257C157.368 28.9757 160.538 27.4257 161.278 26.4857Z" fill="#D2E3F0"/>
<path d="M154.008 30.1557C159.062 30.1557 163.158 26.0591 163.158 21.0057C163.158 15.9523 159.062 11.8557 154.008 11.8557C148.955 11.8557 144.858 15.9523 144.858 21.0057C144.858 26.0591 148.955 30.1557 154.008 30.1557Z" stroke="black" stroke-miterlimit="10"/>
<path d="M130.258 35.3357L135.538 42.1957L144.508 50.3957L150.648 46.7157L157.098 34.5957L140.638 31.4357L130.258 35.3357Z" fill="#540020"/>
<path d="M138.638 43.9957C138.638 43.9957 139.088 40.2557 145.168 40.9857C150.368 41.1357 151.078 43.1257 151.078 43.1257L146.958 49.7457L141.518 47.6657L138.638 43.9957Z" fill="#ED6D6E"/>
<path d="M129.358 35.9857C128.378 35.1857 140.888 50.1157 144.028 52.4657C144.598 52.8957 146.108 53.0957 146.698 52.6857C147.748 51.9357 149.738 50.0557 152.468 45.4257C156.638 38.3457 158.438 35.2357 159.488 34.4157C160.538 33.5957 155.638 34.8957 155.638 34.8957L155.188 36.3157C155.188 36.3157 147.608 50.4757 145.708 46.5157C145.708 46.5057 145.698 46.5057 145.698 46.5157C145.658 46.7857 145.028 50.0057 139.798 44.3657C134.338 38.4957 130.008 35.1257 130.008 35.1257L129.358 35.9857Z" fill="#FED119" stroke="#B25900" stroke-miterlimit="10"/>
<path d="M152.858 30.2957C150.348 29.6257 149.008 26.4957 146.538 24.9057C145.068 23.9657 143.208 23.9757 141.758 24.9557C139.358 26.5657 138.158 29.6457 135.668 30.3857C132.478 31.3357 127.288 31.6357 127.708 34.4357C128.128 37.2357 135.108 36.1857 138.508 36.6257C141.058 36.9557 143.548 40.1757 144.638 41.7657C144.878 42.1157 145.398 42.0557 145.558 41.6657C146.198 40.0557 147.728 37.0057 150.208 36.6057C153.588 36.0657 160.608 36.9157 160.938 34.1057C161.278 31.3157 156.078 31.1657 152.858 30.2957Z" fill="#FED119" stroke="#B25900" stroke-miterlimit="10"/>
<path d="M151.328 7.97567C151.328 7.97567 150.038 6.35568 152.078 5.20568C152.078 5.20568 157.768 3.52567 158.118 9.25567C158.118 9.25567 154.448 6.66567 151.328 7.97567Z" fill="#010000"/>
<path d="M137.208 7.97567C137.208 7.97567 138.498 6.35568 136.458 5.20568C136.458 5.20568 130.768 3.52567 130.418 9.25567C130.418 9.25567 134.088 6.66567 137.208 7.97567Z" fill="#010000"/>
<path d="M166.408 92.9157C166.408 92.9157 167.758 94.2957 172.978 86.1757C172.978 86.1757 175.298 83.8557 178.198 87.3357C181.098 90.8157 176.458 91.9757 176.458 91.9757C176.458 91.9757 180.588 89.3957 182.288 93.0057C183.988 96.6157 178.408 98.7857 178.408 98.7857C178.408 98.7857 168.918 100.086 167.188 109.366C166.128 114.996 162.718 115.716 160.208 115.406C157.398 115.066 155.688 112.086 156.858 109.506C157.118 108.936 157.458 108.306 157.918 107.626C162.558 102.406 160.638 94.2957 160.638 94.2957C160.638 94.2957 159.078 81.5457 166.028 82.1257C172.978 82.7057 168.528 92.1157 166.408 92.9157Z" fill="#F0A823" stroke="#C67100" stroke-miterlimit="10"/>
<path d="M171.818 96.6157C171.818 96.6157 174.718 93.1357 177.038 91.9757" stroke="#C67100" stroke-miterlimit="10"/>
<path d="M166.228 89.6557C166.228 89.6557 171.428 88.4957 170.178 84.4357C170.178 84.4357 169.608 82.2357 166.228 82.7557C166.228 82.7557 163.528 83.8557 165.548 85.5957C167.578 87.3457 166.228 89.6557 166.228 89.6557Z" fill="#FBFDFF" stroke="#AFB1B3" stroke-miterlimit="10"/>
<path d="M175.038 93.1157C175.038 93.1157 178.108 94.3957 179.338 90.5557C180.568 86.7157 175.648 85.4357 174.428 87.3557C174.428 87.3557 176.878 89.2757 175.038 93.1157Z" fill="#FBFDFF" stroke="#AFB1B3" stroke-miterlimit="10"/>
<path d="M178.769 98.3557C178.769 98.3557 182.959 97.8357 182.879 94.2957C182.869 93.8657 182.719 93.4357 182.419 93.1257C181.199 91.8757 179.349 93.7157 179.349 93.7157C179.349 93.7157 180.509 96.0357 178.769 98.3557Z" fill="#FBFDFF" stroke="#AFB1B3" stroke-miterlimit="10"/>
<path d="M161.718 111.306C161.538 111.216 161.318 111.316 161.278 111.516C161.078 112.456 160.848 114.696 163.128 115.156C166.028 115.736 168.348 110.516 167.768 109.356C167.758 109.366 164.068 112.526 161.718 111.306Z" fill="#FBFDFF" stroke="#AFB1B3" stroke-miterlimit="10"/>
</svg>
