<svg width="125" height="175" viewBox="0 0 125 175" fill="none" xmlns="http://www.w3.org/2000/svg">
<path d="M65.0686 157.696C65.0686 157.696 61.7686 171.556 57.1486 171.556C52.5286 171.556 52.5186 160.216 52.5186 160.216L63.7486 143.846L65.7286 148.466L65.0686 157.696Z" fill="#FBFDFF" stroke="#AFB1B3" stroke-miterlimit="10"/>
<path d="M62.4286 145.156C62.4286 145.156 58.4686 171.546 46.5986 173.526C34.7286 175.506 53.1986 143.836 53.1986 143.836L60.4586 139.876L62.4286 145.156Z" fill="#FBFDFF" stroke="#AFB1B3" stroke-miterlimit="10"/>
<path d="M52.5285 142.516C52.5285 142.516 33.3984 164.946 32.7384 167.586C32.0784 170.226 36.0384 173.276 42.6384 169.116C49.2384 164.946 58.4684 143.176 58.4684 143.176L52.5285 142.516Z" fill="#FBFDFF" stroke="#AFB1B3" stroke-miterlimit="10"/>
<path d="M68.2585 137.236C68.2585 137.236 67.7085 147.136 64.4085 150.436C61.1085 153.736 61.7685 149.116 61.7685 149.116C61.7685 149.116 61.1085 146.476 61.1085 145.156C61.1085 143.836 58.4685 149.776 57.1485 150.436C55.8285 151.096 56.6384 141.526 56.6384 141.526C56.6384 141.526 55.1685 145.816 51.8685 146.476C48.5685 147.136 53.0685 136.326 53.0685 136.326L68.2585 137.236Z" fill="#4B2B12" stroke="#3D2009" stroke-miterlimit="10"/>
<path d="M1.39844 158.026C1.39844 158.026 5.67843 161.466 6.01843 169.246C6.01843 169.246 22.5084 161.986 25.8084 171.226L30.4284 170.566C30.4284 170.566 27.6284 164.626 25.0684 164.296C25.0684 164.296 73.9784 149.456 113.558 162.646C113.558 162.646 114.878 156.046 112.238 153.406C112.238 153.406 111.498 152.486 107.908 151.626C107.908 151.626 111.578 147.466 112.238 146.806L110.918 146.146C110.918 146.146 107.288 149.116 105.308 151.096C105.318 151.096 51.2184 142.516 1.39844 158.026Z" fill="#8F451A" stroke="#713312" stroke-miterlimit="10"/>
<path d="M41.9784 144.496L41.6484 146.806C41.6484 146.806 32.0784 153.076 39.3384 160.996L40.9884 160.666C40.9884 160.666 40.6584 158.356 41.9784 156.376C41.9784 156.376 42.6384 160.336 43.2984 160.336L45.9384 159.676C45.9384 159.676 46.5984 158.596 45.9384 156.376C45.9384 156.376 47.2584 158.356 47.2584 159.676L49.8984 159.016C49.8984 159.016 52.5384 147.796 46.5984 146.476V145.156L43.4184 142.836L41.9784 144.496Z" fill="#F0A823" stroke="#C67100" stroke-miterlimit="10"/>
<path d="M79.5886 144.496L79.9186 146.806C79.9186 146.806 86.8486 147.136 84.2086 157.036H80.9086C80.9086 157.036 80.9086 155.716 79.5886 153.736C79.5886 153.736 79.5886 157.036 78.9286 157.036H78.2986C78.2786 157.036 75.6186 157.026 75.5986 157.016C75.4786 156.906 75.0486 155.026 75.6286 153.076C75.6286 153.076 74.3086 155.716 74.3086 157.036H71.6686C71.6686 157.036 69.0286 147.796 74.9686 146.476V145.156L78.1486 142.836L79.5886 144.496Z" fill="#F0A823" stroke="#C67100" stroke-miterlimit="10"/>
<path d="M42.6385 137.236L41.9785 144.496C41.9785 144.496 44.6185 143.176 46.5985 145.156L48.5785 137.896L42.6385 137.236Z" fill="#4B2B12" stroke="#3D2009" stroke-miterlimit="10"/>
<path d="M71.0083 136.576C71.0083 136.576 74.9683 141.856 74.9683 145.156C74.9683 145.156 76.2883 143.836 79.5883 144.496C79.5883 144.496 79.5883 142.136 79.5883 138.696C79.5883 135.256 82.8883 124.046 82.8883 124.046L71.0083 136.576Z" fill="#4B2B12" stroke="#3D2009" stroke-miterlimit="10"/>
<path d="M10.3985 94.4756C10.3985 94.4756 3.24848 112.026 15.3585 132.556C27.4685 153.086 33.7585 146.916 33.7585 146.916C33.7585 146.916 38.0185 143.186 36.6985 131.306C35.3785 119.426 18.2285 88.4156 18.2285 88.4156L10.3985 94.4756Z" fill="#4B2B12" stroke="#3D2009" stroke-miterlimit="10"/>
<path d="M97.0786 89.8056C97.0786 89.8056 111.249 116.786 94.7587 133.946C94.7587 133.946 89.3087 141.386 83.7887 142.286C78.2687 143.186 82.2287 121.416 82.2287 121.416L87.5087 90.4056L97.0786 89.8056Z" fill="#4B2B12" stroke="#3D2009" stroke-miterlimit="10"/>
<path d="M90.4686 93.3656C90.4686 93.3656 93.1386 97.6356 92.7886 100.116C92.4486 102.596 89.1486 96.6656 89.1486 96.6656C89.1486 96.6656 96.4386 127.926 66.5686 139.846C36.6986 151.756 22.1786 116.136 22.1786 116.136C22.1786 116.136 24.1586 122.736 22.8386 124.716C21.5186 126.696 18.8786 116.136 18.8786 113.496C18.8786 113.496 19.7186 117.546 18.6386 117.826C17.5586 118.106 13.5986 112.176 16.2386 92.3756L28.1186 79.1756L59.1286 86.4356L77.5986 81.1556L88.8186 88.4156L90.4686 93.3656Z" fill="#4B2B12" stroke="#3D2009" stroke-miterlimit="10"/>
<path d="M83.1485 14.9456C83.1485 14.9456 90.7885 22.0456 95.7385 20.0856C100.689 18.1256 82.5885 9.53557 80.0685 8.50557C80.0685 8.50557 92.5685 14.3056 94.2485 11.8756C95.7785 9.67563 68.1285 -3.73439 32.1285 2.98561C28.1285 3.73561 24.2385 5.0756 20.7385 7.1556C14.2585 11.2256 10.2985 17.8256 8.97853 27.0556C6.99853 42.8856 7.25852 50.1356 15.3585 69.1856C15.3585 69.1856 19.5485 74.4556 9.87852 87.3956C9.87852 87.3956 7.39852 92.0356 10.3885 94.4656C13.3685 96.8956 21.2885 91.3656 23.0285 89.2856C23.0285 89.2856 20.5585 97.9256 29.6985 99.2456C38.8385 100.566 43.5185 91.2356 43.5185 91.2356C43.5185 91.2356 47.6185 99.8256 58.9085 100.116C70.1985 100.406 71.3285 87.9056 71.3285 87.9056C71.3285 87.9056 84.4685 103.126 97.8285 89.0456C97.8285 89.0456 100.069 87.3656 93.2585 83.7256C85.8885 79.3356 88.3285 67.0156 88.3285 67.0156C88.3285 67.0156 93.4085 27.0856 83.1485 14.9456Z" fill="#FBFDFF" stroke="#AFB1B3" stroke-miterlimit="10"/>
<path d="M32.5083 43.2156C39.8261 43.2156 45.7583 37.2833 45.7583 29.9656C45.7583 22.6478 39.8261 16.7156 32.5083 16.7156C25.1905 16.7156 19.2583 22.6478 19.2583 29.9656C19.2583 37.2833 25.1905 43.2156 32.5083 43.2156Z" fill="white" stroke="black" stroke-miterlimit="10"/>
<path d="M32.1385 37.7256C36.358 37.7256 39.7785 34.305 39.7785 30.0856C39.7785 25.8661 36.358 22.4456 32.1385 22.4456C27.9191 22.4456 24.4985 25.8661 24.4985 30.0856C24.4985 34.305 27.9191 37.7256 32.1385 37.7256Z" fill="black"/>
<path d="M31.3483 27.7756C32.6517 27.7756 33.7083 26.719 33.7083 25.4156C33.7083 24.1122 32.6517 23.0556 31.3483 23.0556C30.0449 23.0556 28.9883 24.1122 28.9883 25.4156C28.9883 26.719 30.0449 27.7756 31.3483 27.7756Z" fill="white"/>
<path d="M32.7087 37.2056C33.2886 37.2056 33.7587 36.7355 33.7587 36.1556C33.7587 35.5757 33.2886 35.1056 32.7087 35.1056C32.1288 35.1056 31.6587 35.5757 31.6587 36.1556C31.6587 36.7355 32.1288 37.2056 32.7087 37.2056Z" fill="white"/>
<path opacity="0.41" d="M42.9783 37.7756C41.0683 40.3156 38.2383 42.1656 34.8683 42.7656C27.8083 44.0156 21.0783 39.3056 19.8283 32.2556C18.9683 27.3856 20.9383 22.6756 24.5583 19.8056C24.5583 19.8056 18.6483 28.6056 22.8483 34.9756C27.0483 41.3456 32.5683 41.2256 34.7983 41.2956C37.3283 41.3756 41.9183 39.1356 42.9783 37.7756Z" fill="#D2E3F0"/>
<path d="M32.4585 43.0956C39.7763 43.0956 45.7085 37.1634 45.7085 29.8456C45.7085 22.5278 39.7763 16.5956 32.4585 16.5956C25.1407 16.5956 19.2085 22.5278 19.2085 29.8456C19.2085 37.1634 25.1407 43.0956 32.4585 43.0956Z" stroke="black" stroke-miterlimit="10"/>
<path d="M62.1484 43.2156C69.4662 43.2156 75.3984 37.2833 75.3984 29.9656C75.3984 22.6478 69.4662 16.7156 62.1484 16.7156C54.8307 16.7156 48.8984 22.6478 48.8984 29.9656C48.8984 37.2833 54.8307 43.2156 62.1484 43.2156Z" fill="white" stroke="black" stroke-miterlimit="10"/>
<path d="M61.7684 37.7256C65.9879 37.7256 69.4084 34.305 69.4084 30.0856C69.4084 25.8661 65.9879 22.4456 61.7684 22.4456C57.549 22.4456 54.1284 25.8661 54.1284 30.0856C54.1284 34.305 57.549 37.7256 61.7684 37.7256Z" fill="black"/>
<path d="M62.5587 27.7756C63.8621 27.7756 64.9187 26.719 64.9187 25.4156C64.9187 24.1122 63.8621 23.0556 62.5587 23.0556C61.2553 23.0556 60.1987 24.1122 60.1987 25.4156C60.1987 26.719 61.2553 27.7756 62.5587 27.7756Z" fill="white"/>
<path d="M61.1984 37.2056C61.7783 37.2056 62.2484 36.7355 62.2484 36.1556C62.2484 35.5757 61.7783 35.1056 61.1984 35.1056C60.6185 35.1056 60.1484 35.5757 60.1484 36.1556C60.1484 36.7355 60.6185 37.2056 61.1984 37.2056Z" fill="white"/>
<path opacity="0.41" d="M72.6184 37.7756C70.7084 40.3156 67.8784 42.1656 64.5084 42.7656C57.4484 44.0156 50.7184 39.3056 49.4684 32.2556C48.6084 27.3856 50.5784 22.6756 54.1984 19.8056C54.1984 19.8056 48.2884 28.6056 52.4884 34.9756C56.6884 41.3456 62.2084 41.2256 64.4384 41.2956C66.9584 41.3756 71.5484 39.1356 72.6184 37.7756Z" fill="#D2E3F0"/>
<path d="M62.0986 43.0956C69.4164 43.0956 75.3486 37.1634 75.3486 29.8456C75.3486 22.5278 69.4164 16.5956 62.0986 16.5956C54.7809 16.5956 48.8486 22.5278 48.8486 29.8456C48.8486 37.1634 54.7809 43.0956 62.0986 43.0956Z" stroke="black" stroke-miterlimit="10"/>
<path d="M26.3881 51.5356C25.2781 50.6356 33.6881 57.0556 42.1381 61.5156C46.4081 63.7756 51.5681 63.6356 55.6581 61.0656C64.4581 55.5456 68.7781 50.2356 70.0181 49.2556C71.5381 48.0656 64.4381 49.9556 64.4381 49.9556L63.7881 52.0156C63.7881 52.0156 53.3081 51.2656 50.5581 45.5356C50.5581 45.5256 27.3181 50.2856 27.3181 50.2856L26.3881 51.5356Z" fill="#FED119" stroke="#B25900" stroke-miterlimit="10"/>
<path d="M60.4283 43.2956C56.7983 42.3256 54.8483 37.7856 51.2783 35.4956C49.1483 34.1256 46.4583 34.1556 44.3583 35.5656C40.8883 37.9056 39.1483 42.3556 35.5483 43.4256C30.9283 44.8056 23.4083 45.2356 24.0183 49.2856C24.6183 53.3356 34.7383 51.8256 39.6583 52.4656C43.3483 52.9456 46.9583 57.6056 48.5283 59.9056C48.8683 60.4056 49.6383 60.3256 49.8583 59.7556C50.7883 57.4256 52.9983 53.0056 56.5883 52.4356C61.4883 51.6556 71.6483 52.8756 72.1383 48.8156C72.6183 44.7656 65.0883 44.5456 60.4283 43.2956Z" fill="#FED119" stroke="#B25900" stroke-miterlimit="10"/>
<path d="M58.2085 10.9656C58.2085 10.9656 56.3385 8.62558 59.2885 6.95558C59.2885 6.95558 67.5385 4.51563 68.0385 12.8156C68.0385 12.8156 62.7285 9.05559 58.2085 10.9656Z" fill="#010000"/>
<path d="M37.7685 10.9656C37.7685 10.9656 39.6385 8.62558 36.6885 6.95558C36.6885 6.95558 28.4385 4.51563 27.9385 12.8156C27.9285 12.8156 33.2385 9.05559 37.7685 10.9656Z" fill="#010000"/>
<path d="M112.209 146.806C112.209 146.806 103.669 140.866 108.289 132.286C108.289 132.296 120.089 136.906 112.209 146.806Z" fill="#4BAE00" stroke="#225600" stroke-width="0.5" stroke-miterlimit="10"/>
<path d="M111.979 146.676C111.979 146.676 119.509 151.426 124.119 141.536C124.119 141.526 115.009 138.616 111.979 146.676Z" fill="#4BAE00" stroke="#225600" stroke-width="0.5" stroke-miterlimit="10"/>
<path d="M109.278 135.916C109.278 135.916 112.628 138.526 112.268 142.826" stroke="#225600" stroke-width="0.5" stroke-miterlimit="10" stroke-linecap="round"/>
<path d="M114.548 145.816C114.548 145.816 116.528 142.516 121.148 143.176" stroke="#225600" stroke-width="0.5" stroke-miterlimit="10" stroke-linecap="round"/>
</svg>
