<svg width="236" height="243" viewBox="0 0 236 243" fill="none" xmlns="http://www.w3.org/2000/svg">
<g filter="url(#filter0_d_59_3)">
<path d="M94.7812 191.052L97.6616 203.441C97.6616 203.441 121.142 199.779 119.945 205.691C118.749 211.602 114.779 208.584 114.779 208.584C114.779 208.584 117.766 210.603 117.728 211.582C117.691 212.561 116.595 215.521 108.489 214.435C108.489 214.435 111.868 219.649 105.995 220.941C105.995 220.941 104.217 221.306 102.263 218.811C100.31 216.316 96.3636 212.317 90.2771 212.239C90.2771 212.239 80.055 214.092 78.1768 209.128C76.2986 204.163 90.514 204.348 90.514 204.348L85.8371 191.447L94.7812 191.052Z" fill="#F0A823" stroke="#C67100" stroke-miterlimit="10"/>
<path d="M108.6 214.447C108.6 214.447 103.634 210.402 100.575 210.368" stroke="#C67100" stroke-miterlimit="10" stroke-linecap="round"/>
<path d="M114.978 208.781C114.978 208.781 112.908 205.67 99.6502 205.488" stroke="#C67100" stroke-miterlimit="10" stroke-linecap="round"/>
<path d="M124.101 207.456C124.101 207.456 122.24 202.018 115.738 202.582C115.164 202.626 114.687 202.977 114.476 203.508C114.159 204.309 114.109 205.587 115.934 206.82C118.927 208.832 124.101 207.456 124.101 207.456Z" fill="#FBFDFF" stroke="#AFB1B3" stroke-miterlimit="10"/>
<path d="M122.926 212.776C122.926 212.776 120.368 208.376 115.02 207.773C114.406 207.704 113.83 208.166 113.803 208.772C113.763 209.471 113.815 210.41 114.151 211.192C114.781 212.669 122.926 212.776 122.926 212.776Z" fill="#FBFDFF" stroke="#AFB1B3" stroke-miterlimit="10"/>
<path d="M113.447 220.582C113.447 220.582 113.728 214.496 108.654 214.436C108.654 214.436 106.721 214.932 107.083 217.635C107.458 220.339 113.447 220.582 113.447 220.582Z" fill="#FBFDFF" stroke="#AFB1B3" stroke-miterlimit="10"/>
<path d="M71.9697 209.846C71.9697 209.846 75.1755 204.928 81.2446 206.003C81.2446 206.003 82.599 208.045 80.313 209.475C78.0406 210.907 71.9697 209.846 71.9697 209.846Z" fill="#FBFDFF" stroke="#AFB1B3" stroke-miterlimit="10"/>
<path d="M65.9805 195.051L67.5415 207.679C67.5415 207.679 91.2358 206.358 89.4224 212.131C87.609 217.904 83.9823 214.508 83.9823 214.508C83.9823 214.508 86.7359 216.81 86.6016 217.791C86.4673 218.772 85.0569 221.602 77.1319 219.715C77.1319 219.715 79.9417 225.241 73.9707 225.943C73.9707 225.943 72.1619 226.13 70.4829 223.45C68.8039 220.771 65.3115 216.394 59.267 215.714C59.267 215.714 48.9242 216.544 47.581 211.412C46.2378 206.28 60.3416 207.866 60.3416 207.866L57.0508 194.545L65.9805 195.051Z" fill="#F0A823" stroke="#C67100" stroke-miterlimit="10"/>
<path d="M77.2427 219.702C77.2427 219.702 72.7346 215.195 69.7068 214.854" stroke="#C67100" stroke-miterlimit="10" stroke-linecap="round"/>
<path d="M84.1861 214.69C84.1861 214.69 82.4633 211.414 69.3113 209.904" stroke="#C67100" stroke-miterlimit="10" stroke-linecap="round"/>
<path d="M93.4062 214.262C93.4062 214.262 92.1229 208.664 85.6145 208.58C85.0483 208.57 84.5221 208.875 84.2603 209.372C83.865 210.138 83.6787 211.399 85.3555 212.803C88.1384 215.127 93.4062 214.262 93.4062 214.262Z" fill="#FBFDFF" stroke="#AFB1B3" stroke-miterlimit="10"/>
<path d="M91.6639 219.445C91.6639 219.445 89.5979 214.812 84.3398 213.68C83.7354 213.544 83.1264 213.948 83.0292 214.558C82.9192 215.261 82.8619 216.186 83.1246 216.999C83.6063 218.538 91.6639 219.445 91.6639 219.445Z" fill="#FBFDFF" stroke="#AFB1B3" stroke-miterlimit="10"/>
<path d="M81.4222 226.291C81.4222 226.291 82.3455 220.256 77.3172 219.691C77.3172 219.691 75.3575 219.995 75.4246 222.729C75.5088 225.439 81.4222 226.291 81.4222 226.291Z" fill="#FBFDFF" stroke="#AFB1B3" stroke-miterlimit="10"/>
<path d="M41.3189 211.542C41.3189 211.542 45.0204 206.956 50.9291 208.623C50.9291 208.623 52.0577 210.805 49.6358 212.006C47.2276 213.209 41.3189 211.542 41.3189 211.542Z" fill="#FBFDFF" stroke="#AFB1B3" stroke-miterlimit="10"/>
<path d="M53.4679 191.794C53.4679 191.794 32.5975 210.546 17.2319 212.798C1.86632 215.05 50.5963 183.745 50.5963 183.745L53.4679 191.794Z" fill="#FBFDFF" stroke="#AFB1B3" stroke-miterlimit="10"/>
<path d="M49.2638 186.866C49.2638 186.866 21.6428 219.214 7.08976 213.616C-7.4479 208.005 44.699 180.898 44.699 180.898L49.2638 186.866Z" fill="#FBFDFF" stroke="#AFB1B3" stroke-miterlimit="10"/>
<path d="M42.8663 182.842C42.8663 182.842 15.1161 214.47 2.79501 215.072C-9.52609 215.675 32.6471 175.749 32.6471 175.749L44.4321 179.059L42.8663 182.842Z" fill="#FBFDFF" stroke="#AFB1B3" stroke-miterlimit="10"/>
<path d="M102.181 178.195C102.181 178.195 100.961 193.959 90.7972 193.768C80.6332 193.577 75.8778 183.106 75.8778 183.106L102.181 178.195Z" fill="#4B2B12" stroke="#3D2009" stroke-miterlimit="10"/>
<path d="M72.303 186.488C72.303 186.488 71.1259 195.304 61.7624 196.214C52.3989 197.124 47.914 184.671 47.914 184.671L72.303 186.488Z" fill="#4B2B12" stroke="#3D2009" stroke-miterlimit="10"/>
<path d="M138.123 101.778C138.123 101.778 156.72 115.803 185.022 103.213C213.323 90.6361 221.168 85.5962 224.812 88.9868C228.455 92.3775 207.086 106.742 207.086 106.742C207.086 106.742 230.701 98.5651 224.222 108.714C217.743 118.864 202.235 120.037 202.235 120.037C202.235 120.037 224.937 118.688 220.736 127.118C220.736 127.118 219.075 131.879 201.939 129.907C201.939 129.907 216.927 132.623 211.992 138.988C207.057 145.353 188.281 140.221 188.281 140.221C188.281 140.221 204.148 144.028 199.343 149.417C194.525 154.806 175.713 149.014 175.713 149.014C175.713 149.014 187.464 153.993 183.654 159.497C179.845 165.002 160.335 157.804 160.335 157.804C160.335 157.804 170.78 163.958 167.101 168.487C163.422 173.016 148.078 165.308 148.078 165.308C148.078 165.308 153.609 169.906 151.069 173.575C148.53 177.245 133.411 175.505 125.767 163.731L130.208 99.8897L138.123 101.778Z" fill="#4B2B12" stroke="#3D2009" stroke-miterlimit="10"/>
<path d="M137.505 102.432C137.505 102.432 164.006 171.725 71.816 188.788C-20.3741 205.852 106.161 46.4291 106.161 46.4291L137.505 102.432Z" fill="#4B2B12" stroke="#3D2009" stroke-miterlimit="10"/>
<path d="M29.7195 143.156C29.7195 143.156 29.6919 120.377 69.7241 112.104C69.7241 112.104 115.684 112.626 94.0854 147.591C88.4819 156.666 80.54 164.174 71.2288 169.704C57.7058 177.734 34.9429 187.862 12.1449 182.721C12.1449 182.721 8.1082 182.256 8.63024 178.353C9.15228 174.45 16.6081 172.336 16.6081 172.336C16.6081 172.336 13.6155 164.065 24.0989 162.299C24.0989 162.299 20.8452 155.979 27.2918 153.749C27.2747 153.774 24.021 147.454 29.7195 143.156Z" fill="#4B2B12" stroke="#3D2009" stroke-miterlimit="10"/>
<path d="M66.4385 35.7819C66.4385 35.7819 59.0555 43.4724 53.8071 41.9314C48.5586 40.3905 66.6262 30.342 69.1432 29.1191C69.1432 29.1191 56.6471 35.9134 54.7371 33.6321C52.9934 31.5575 80.5949 15.9534 118.282 19.7549C122.477 20.1707 126.588 21.206 130.35 22.991C137.353 26.5275 141.929 32.7833 143.965 41.8924C147.163 57.5203 147.426 64.7656 140.464 84.4181C140.464 84.4181 136.518 90.0144 147.454 102.129C147.454 102.129 150.35 106.558 147.447 109.222C144.543 111.887 135.947 107.016 134.004 105.079C134.004 105.079 137.197 113.504 127.842 115.547C118.487 117.589 112.98 108.67 112.98 108.67C112.98 108.67 109.368 117.557 97.7306 118.761C86.0929 119.965 83.9972 107.583 83.9972 107.583C83.9972 107.583 71.526 123.817 56.7006 110.867C56.7006 110.867 54.2552 109.381 61.0311 105.195C68.3271 100.225 64.9053 88.1317 64.9053 88.1317C64.9053 88.1317 56.7356 48.7071 66.4385 35.7819Z" fill="#FBFDFF" stroke="#AFB1B3" stroke-miterlimit="10"/>
<path d="M132.786 49.9209C124.638 49.0059 118.914 41.833 120.002 33.8998C121.089 25.9666 128.576 20.2773 136.724 21.1923C144.872 22.1073 150.596 29.2802 149.508 37.2134C148.421 45.1466 140.934 50.8359 132.786 49.9209Z" fill="white" stroke="black" stroke-miterlimit="10"/>
<path d="M130.37 45.0894C125.673 44.5619 122.374 40.4273 123.001 35.8544C123.628 31.2815 127.943 28.002 132.64 28.5294C137.337 29.0569 140.636 33.1915 140.009 37.7644C139.382 42.3373 135.067 45.6168 130.37 45.0894Z" fill="black"/>
<path d="M130.193 34.3305C128.745 34.1679 127.728 32.8931 127.921 31.4833C128.114 30.0734 129.445 29.0623 130.893 29.2249C132.341 29.3876 133.358 30.6623 133.165 32.0722C132.972 33.482 131.641 34.4931 130.193 34.3305Z" fill="white"/>
<path d="M133.08 44.3493C132.434 44.2769 131.981 43.7088 132.067 43.0806C132.153 42.4524 132.746 42.0018 133.392 42.0743C134.037 42.1467 134.49 42.7148 134.404 43.343C134.318 43.9712 133.725 44.4218 133.08 44.3493Z" fill="white"/>
<path opacity="0.41" d="M126.644 47.5244C129.593 49.3973 133.28 50.2004 137.072 49.5407C144.995 48.139 150.364 40.7802 149.064 33.1009C148.165 27.8124 144.332 23.7492 139.441 22.1943C139.441 22.1943 148.96 28.934 146.889 37.0252C144.818 45.1165 138.947 47.0974 136.62 48.0155C133.962 49.0437 128.27 48.5114 126.644 47.5244Z" fill="#D2E3F0"/>
<path d="M132.793 49.7618C124.645 48.8468 118.921 41.6739 120.009 33.7407C121.096 25.8075 128.583 20.1182 136.731 21.0332C144.879 21.9482 150.602 29.1211 149.515 37.0543C148.428 44.9875 140.941 50.6769 132.793 49.7618Z" stroke="black" stroke-miterlimit="10"/>
<path d="M107.564 60.3123C98.786 59.3265 92.6194 51.5988 93.7908 43.052C94.9622 34.5052 103.028 28.3758 111.806 29.3616C120.584 30.3474 126.751 38.0751 125.58 46.6219C124.408 55.1687 116.343 61.2981 107.564 60.3123Z" fill="white" stroke="black" stroke-miterlimit="10"/>
<path d="M107.7 54.1676C102.636 53.5989 99.0779 49.1406 99.7537 44.2097C100.43 39.2789 105.083 35.7427 110.147 36.3114C115.212 36.8801 118.769 41.3384 118.093 46.2693C117.418 51.2001 112.764 54.7363 107.7 54.1676Z" fill="black"/>
<path d="M105.72 43.1771C104.16 43.0019 103.063 41.628 103.272 40.1086C103.48 38.5892 104.914 37.4995 106.474 37.6747C108.035 37.85 109.131 39.2238 108.923 40.7432C108.715 42.2627 107.281 43.3524 105.72 43.1771Z" fill="white"/>
<path d="M111.931 52.8837C111.24 52.8062 110.755 52.1985 110.848 51.5265C110.94 50.8544 111.574 50.3724 112.264 50.4499C112.954 50.5274 113.439 51.1351 113.347 51.8072C113.255 52.4792 112.621 52.9612 111.931 52.8837Z" fill="white"/>
<path opacity="0.41" d="M100.942 57.7275C104.134 59.7349 108.1 60.6096 112.175 59.8879C120.705 58.3801 126.498 50.439 125.099 42.1723C124.132 36.4741 119.999 32.0956 114.739 30.4188C114.739 30.4188 124.998 37.6839 122.757 46.4129C120.531 55.1302 114.2 57.2603 111.684 58.251C108.82 59.3768 102.694 58.7957 100.942 57.7275Z" fill="#D2E3F0"/>
<path d="M107.573 60.14C98.7943 59.1542 92.6277 51.4265 93.7991 42.8797C94.9705 34.3329 103.036 28.2035 111.815 29.1893C120.593 30.1751 126.759 37.9028 125.588 46.4496C124.417 54.9964 116.351 61.1258 107.573 60.14Z" stroke="black" stroke-miterlimit="10"/>
<path d="M106.301 22.3648C106.301 22.3648 107.48 19.0342 103.427 18.3938C103.427 18.3938 93.013 19.0556 95.807 28.3843C95.807 28.3843 100.342 22.1074 106.301 22.3648Z" fill="#010000"/>
<path d="M121.847 18.1679C121.847 18.1679 118.979 16.4818 121.479 13.6555C121.479 13.6555 129.328 8.06253 133.003 16.3655C133.003 16.3655 125.941 14.5184 121.847 18.1679Z" fill="#010000"/>
<path d="M147.781 73.6774C147.802 73.6259 147.837 73.5759 147.893 73.5687C148.934 73.4432 158.795 72.2211 161.871 71.6644C165.131 71.0878 169.865 75.7962 170.707 79.6493C170.707 79.6493 178.866 65.5055 172.124 58.2947C172.124 58.2947 168.442 53.9742 161.401 51.9703C154.361 49.9665 148.473 46.6104 148.473 46.6104C148.473 46.6104 142.268 42.545 136.186 48.5836C130.105 54.6221 126.561 60.4071 113.121 63.7326C113.121 63.7326 104.509 64.1117 108.212 74.3351C111.913 84.5717 141.011 93.0291 151.558 88.0045C151.568 88.0325 143.684 86.8364 147.781 73.6774Z" fill="#FED119" stroke="#B25900" stroke-miterlimit="10"/>
<path d="M147.874 73.4856C147.874 73.4856 127.536 80.3313 113.59 66.6828" stroke="#B25900" stroke-miterlimit="10" stroke-linecap="round"/>
<path d="M116.149 64.7093C116.149 64.7093 112.903 65.2833 111.242 69.3745" stroke="#B25900" stroke-miterlimit="10" stroke-linecap="round"/>
<path d="M143.287 74.4608C143.287 74.4608 141.606 79.9713 145.932 85.7393C145.932 85.7393 119.878 82.3145 117.246 69.6158C117.248 69.6025 126.895 77.7035 143.287 74.4608Z" fill="#540020"/>
<path d="M136.609 75.2063C136.609 75.2063 141.616 79.8284 143.35 85.2856L134.947 83.2161L125.709 79.3483L121.548 76.4447L118.211 72.376L117.233 69.601L121.301 71.9666L126.027 73.8788L130.533 74.86L134.711 75.2089L136.609 75.2063Z" fill="#ED6D6E"/>
<path d="M143.287 74.4602C143.287 74.4602 141.607 79.971 145.933 85.7393C145.933 85.7393 120.096 82.3389 117.281 69.7679C117.275 69.713 117.321 69.6776 117.372 69.7104C118.512 70.5972 127.949 77.4969 143.287 74.4602Z" stroke="#B25900" stroke-miterlimit="10" stroke-linecap="round"/>
<path d="M132.347 75.9784C132.347 75.9784 135.81 77.8485 136.762 79.9752" stroke="#CF4F50" stroke-miterlimit="10" stroke-linecap="round"/>
<path opacity="0.3" d="M144.377 53.5958C144.377 53.5958 141.005 49.962 139.112 51.6462C137.219 53.3303 143.64 53.9193 144.377 53.5958Z" fill="#C6A518" stroke="#B25900" stroke-miterlimit="10" stroke-linecap="round"/>
<path d="M144.377 53.5958C144.377 53.5958 141.005 49.962 139.112 51.6462C137.219 53.3303 143.64 53.9193 144.377 53.5958Z" stroke="#B25900" stroke-miterlimit="10" stroke-linecap="round"/>
</g>
<defs>
<filter id="filter0_d_59_3" x="0.0378418" y="11.813" width="233.81" height="223.044" filterUnits="userSpaceOnUse" color-interpolation-filters="sRGB">
<feFlood flood-opacity="0" result="BackgroundImageFix"/>
<feColorMatrix in="SourceAlpha" type="matrix" values="0 0 0 0 0 0 0 0 0 0 0 0 0 0 0 0 0 0 127 0" result="hardAlpha"/>
<feOffset dx="4" dy="4"/>
<feGaussianBlur stdDeviation="2"/>
<feComposite in2="hardAlpha" operator="out"/>
<feColorMatrix type="matrix" values="0 0 0 0 0 0 0 0 0 0 0 0 0 0 0 0 0 0 0.25 0"/>
<feBlend mode="normal" in2="BackgroundImageFix" result="effect1_dropShadow_59_3"/>
<feBlend mode="normal" in="SourceGraphic" in2="effect1_dropShadow_59_3" result="shape"/>
</filter>
</defs>
</svg>
