<svg width="78" height="78" viewBox="0 0 78 78" fill="none" xmlns="http://www.w3.org/2000/svg">
<path d="M1.16602 26.898L36.3466 0.795625C37.7853 -0.272753 39.7551 -0.263647 41.1846 0.813836L75.8341 26.898H1.16602Z" fill="#FFD100"/>
<path d="M74.5497 77.0845H2.45241C1.09873 77.0845 0 75.9857 0 74.6321V29.0105C0 27.6568 1.09873 26.5581 2.45241 26.5581H74.5527C75.9064 26.5581 77.0051 27.6568 77.0051 29.0105V74.6321C77.0021 75.9857 75.9064 77.0845 74.5497 77.0845Z" fill="#FFC700"/>
<path d="M74.289 73.6851L42.2498 54.1114L41.1936 53.4679C39.5425 52.4572 37.4634 52.4663 35.8183 53.4861L34.7681 54.1387L3.27832 73.6851L33.1049 52.8578L35.7273 51.0276C37.5393 49.677 40.025 49.677 41.8401 51.0276L44.1498 52.6393L74.289 73.6851Z" fill="#DA9135"/>
<path d="M3.27832 6.92686H3.17832V7.02686V29.9029V30.0029H3.27832H73.5272H73.6272V29.9029V7.02686V6.92686H73.5272H3.27832Z" fill="white" stroke="#DADADA" stroke-width="0.2"/>
<path d="M73.5272 29.8998L65.4354 36.1644L65.3292 36.2463L58.7642 41.3272L54.0232 44.9967L44.1498 52.6392L42.2498 54.1113L41.1936 53.4678C39.5425 52.4571 37.4634 52.4662 35.8183 53.486L34.7681 54.1386L33.1049 52.8578L22.8915 44.9967L18.1233 41.3272L11.5249 36.2463L10.3169 35.3175L3.27832 29.8998H73.5272Z" fill="white"/>
<path d="M65.435 15.0822H10.3164V18.7517H65.435V15.0822Z" fill="#E0EDF3"/>
<path d="M65.435 23.8295H10.3164V27.499H65.435V23.8295Z" fill="#E0EDF3"/>
<path d="M65.435 32.5798V36.1644L65.3288 36.2463H11.5244L10.3164 35.3176V32.5798H65.435Z" fill="#E0EDF3"/>
<path d="M58.7639 41.3271L54.023 44.9967H22.8913L18.123 41.3271H58.7639Z" fill="#E0EDF3"/>
</svg>
