<svg width="89" height="53" viewBox="0 0 89 53" fill="none" xmlns="http://www.w3.org/2000/svg">
<path d="M45.6522 5.86289C45.6979 4.52211 46.7082 3.57092 48.0839 3.57092H69.5929C71.2238 3.57092 72.8065 4.8929 73.1235 6.52656L81.6196 50.0443C81.9394 51.6753 80.8727 53 79.2417 53H10.9906C9.35961 53 7.777 51.678 7.45994 50.0443L0.455073 14.1736C0.135326 12.5426 1.20204 11.218 2.83302 11.218H39.972C43.1883 11.2153 45.542 8.99587 45.6522 5.86289Z" fill="#2DA3A0"/>
<path d="M9.94336 50.8504H81.2549L85.3176 2.86694H14.006L9.94336 50.8504Z" fill="#F0F0F0"/>
<path d="M9.94336 50.8504H81.2549L84.1944 2.86694H14.006L9.94336 50.8504Z" fill="#E0E0E0"/>
<path d="M9.94336 50.8505H81.2549L83.7054 1.34351H12.3939L9.94336 50.8505Z" fill="#F0F0F0"/>
<path d="M9.94336 50.8505H81.2549L82.2249 1.34351H12.3939L9.94336 50.8505Z" fill="#E0E0E0"/>
<path d="M9.94336 50.8504H81.2549L81.6794 0H10.3679L9.94336 50.8504Z" fill="#F0F0F0"/>
<path d="M9.94242 50.8504H81.254L79.7896 0.961914H8.9375L9.94242 50.8504Z" fill="#E0E0E0"/>
<path d="M9.94251 50.8505H81.254L79.1367 1.34351H7.8252L9.94251 50.8505Z" fill="#F0F0F0"/>
<path d="M9.94243 50.8505H81.254L77.8818 2.09045H6.57031L9.94243 50.8505Z" fill="#E0E0E0"/>
<path d="M9.94271 50.8505H81.2542L77.3447 2.50696H6.0332L9.94271 50.8505Z" fill="#F0F0F0"/>
<path d="M61.1561 2.83466C61.6209 1.52612 62.9267 0.596436 64.3025 0.596436H85.8115C87.4424 0.596436 88.6113 1.88886 88.4232 3.47953L82.8693 50.1115C82.6785 51.7048 81.2034 52.9946 79.5697 52.9946H11.3132C9.68224 52.9946 8.51342 51.7021 8.7015 50.1115L13.366 10.9412C13.5568 9.34782 15.0319 8.05808 16.6656 8.05808H53.8073C57.0235 8.06077 60.0705 5.89241 61.1561 2.83466Z" fill="#51D3D1"/>
</svg>
