<svg width="81" height="77" viewBox="0 0 81 77" fill="none" xmlns="http://www.w3.org/2000/svg">
<path d="M27.6831 25.6427L27.2091 24.3157C26.5377 22.4319 24.6539 21.2629 22.6674 21.4959L3.79341 23.7036C1.43959 23.98 -0.246783 26.1127 0.0296719 28.4665L5.40079 74.3975C5.59036 76.0128 7.05163 77.166 8.66691 76.9804L76.1969 69.0817C77.8122 68.8921 78.9654 67.4308 78.7798 65.8155L74.1314 26.1048C73.9419 24.4895 72.4806 23.3363 70.8653 23.5219L31.6522 28.1071C29.9184 28.3125 28.2676 27.2896 27.6831 25.6427Z" fill="#BA7929"/>
<path d="M29.5705 5.66277L8.2334 9.91626L14.0936 39.3133L35.4307 35.0599L29.5705 5.66277Z" fill="#407BFF"/>
<path opacity="0.7" d="M29.5705 5.66277L8.2334 9.91626L14.0936 39.3133L35.4307 35.0599L29.5705 5.66277Z" fill="white"/>
<g opacity="0.4">
<path opacity="0.4" d="M26.7193 12.7401L13.5759 15.3585C12.94 15.4849 12.32 15.0702 12.1936 14.4344C12.0672 13.7985 12.4819 13.1785 13.1177 13.0521L26.2612 10.4337C26.897 10.3073 27.5171 10.722 27.6435 11.3578C27.7698 11.9937 27.3551 12.6137 26.7193 12.7401Z" fill="#407BFF"/>
<path opacity="0.4" d="M27.6871 17.6018L14.5436 20.2202C13.9078 20.3466 13.2877 19.9319 13.1613 19.2961C13.035 18.6602 13.4497 18.0402 14.0855 17.9138L27.229 15.2954C27.8648 15.169 28.4848 15.5837 28.6112 16.2195C28.7376 16.8554 28.3269 17.4754 27.6871 17.6018Z" fill="#407BFF"/>
<path opacity="0.4" d="M28.6539 22.4635L15.5104 25.0819C14.8746 25.2083 14.2545 24.7936 14.1281 24.1578C14.0018 23.5219 14.4165 22.9019 15.0523 22.7755L28.1958 20.1571C28.8316 20.0307 29.4516 20.4454 29.578 21.0812C29.7084 21.7171 29.2937 22.3371 28.6539 22.4635Z" fill="#407BFF"/>
<path opacity="0.4" d="M29.6265 27.3251L16.4831 29.9435C15.8472 30.0699 15.2272 29.6552 15.1008 29.0193C14.9744 28.3835 15.3891 27.7635 16.025 27.6371L29.1684 25.0186C29.8043 24.8923 30.4243 25.307 30.5507 25.9428C30.6771 26.5747 30.2624 27.1947 29.6265 27.3251Z" fill="#407BFF"/>
<path opacity="0.4" d="M27.0004 32.9016L17.4509 34.8052C16.815 34.9316 16.195 34.5169 16.0686 33.881C15.9422 33.2452 16.3569 32.6252 16.9927 32.4988L26.5423 30.5952C27.1781 30.4688 27.7982 30.8835 27.9245 31.5193C28.0549 32.1512 27.6402 32.7713 27.0004 32.9016Z" fill="#407BFF"/>
</g>
<path d="M59.9758 -5.33796e-05L38.4189 2.9502L42.4836 32.65L64.0405 29.6998L59.9758 -5.33796e-05Z" fill="#407BFF"/>
<path opacity="0.7" d="M59.9758 -5.33796e-05L38.4189 2.9502L42.4836 32.65L64.0405 29.6998L59.9758 -5.33796e-05Z" fill="white"/>
<g opacity="0.4">
<path opacity="0.4" d="M56.6985 6.88728L43.4207 8.70399C42.777 8.79087 42.1846 8.34064 42.0937 7.6969C42.0069 7.05316 42.4571 6.46075 43.1008 6.36992L56.3786 4.55321C57.0223 4.46633 57.6147 4.91655 57.7055 5.5603C57.7924 6.20404 57.3422 6.79645 56.6985 6.88728Z" fill="#407BFF"/>
<path opacity="0.4" d="M57.3694 11.7963L44.0916 13.613C43.4479 13.6999 42.8555 13.2497 42.7646 12.606C42.6778 11.9622 43.128 11.3698 43.7717 11.279L57.0495 9.46227C57.6932 9.37538 58.2856 9.82561 58.3764 10.4694C58.4633 11.117 58.0131 11.7095 57.3694 11.7963Z" fill="#407BFF"/>
<path opacity="0.4" d="M48.4206 18.0245L44.7635 18.5261C44.1198 18.6129 43.5273 18.1627 43.4365 17.519C43.3496 16.8752 43.7999 16.2828 44.4436 16.192L48.1007 15.6904C48.7444 15.6035 49.3368 16.0538 49.4277 16.6975C49.5146 17.3412 49.0643 17.9376 48.4206 18.0245Z" fill="#407BFF"/>
<path opacity="0.4" d="M55.5173 17.0529L51.8602 17.5545C51.2164 17.6414 50.624 17.1912 50.5332 16.5474C50.4463 15.9037 50.8965 15.3113 51.5403 15.2204L55.1974 14.7189C55.8411 14.632 56.4335 15.0822 56.5244 15.7259C56.6112 16.3697 56.161 16.966 55.5173 17.0529Z" fill="#407BFF"/>
<path opacity="0.4" d="M58.7121 21.6184L45.4344 23.4351C44.7906 23.522 44.1982 23.0717 44.1074 22.428C44.0205 21.7842 44.4708 21.1918 45.1145 21.101L58.3922 19.2843C59.036 19.1974 59.6284 19.6476 59.7192 20.2914C59.8061 20.9351 59.3559 21.5315 58.7121 21.6184Z" fill="#407BFF"/>
<path opacity="0.4" d="M55.7584 27.0251L46.1102 28.3442C45.4664 28.4311 44.874 27.9808 44.7832 27.3371C44.6963 26.6934 45.1465 26.1009 45.7903 26.0101L55.4385 24.691C56.0823 24.6041 56.6747 25.0544 56.7655 25.6981C56.8524 26.3419 56.4022 26.9382 55.7584 27.0251Z" fill="#407BFF"/>
</g>
<path d="M39.6265 4.33659L17.9521 6.2251L20.554 36.0868L42.2284 34.1983L39.6265 4.33659Z" fill="#407BFF"/>
<path opacity="0.8" d="M39.6265 4.33659L17.9521 6.2251L20.554 36.0868L42.2284 34.1983L39.6265 4.33659Z" fill="white"/>
<g opacity="0.4">
<path opacity="0.4" d="M36.0234 11.0578L22.6706 12.2228C22.0229 12.2781 21.4542 11.8003 21.395 11.1526C21.3397 10.5049 21.8176 9.93617 22.4653 9.87693L35.818 8.71187C36.4657 8.65658 37.0344 9.13445 37.0937 9.78214C37.149 10.4298 36.6711 10.9985 36.0234 11.0578Z" fill="#407BFF"/>
<path opacity="0.4" d="M36.4541 15.9946L23.1013 17.1596C22.4536 17.2149 21.8849 16.737 21.8256 16.0893C21.7704 15.4416 22.2482 14.8729 22.8959 14.8137L36.2487 13.6486C36.8964 13.5933 37.4651 14.0712 37.5243 14.7189C37.5796 15.3666 37.1018 15.9393 36.4541 15.9946Z" fill="#407BFF"/>
<path opacity="0.4" d="M36.8847 20.9312L23.5319 22.0963C22.8843 22.1516 22.3155 21.6737 22.2563 21.026C22.201 20.3783 22.6789 19.8096 23.3266 19.7503L36.6794 18.5853C37.327 18.53 37.8958 19.0079 37.955 19.6556C38.0103 20.3033 37.5324 20.8759 36.8847 20.9312Z" fill="#407BFF"/>
<path opacity="0.4" d="M37.3154 25.8678L23.9626 27.0329C23.3149 27.0882 22.7462 26.6103 22.687 25.9626C22.6317 25.3149 23.1096 24.7462 23.7572 24.687L37.11 23.5219C37.7577 23.4666 38.3264 23.9445 38.3857 24.5922C38.4409 25.2438 37.9631 25.8126 37.3154 25.8678Z" fill="#407BFF"/>
<path opacity="0.4" d="M34.0959 31.1244L24.3923 31.9696C23.7446 32.0249 23.1759 31.547 23.1167 30.8993C23.0614 30.2516 23.5392 29.6829 24.1869 29.6237L33.8905 28.7785C34.5382 28.7232 35.1069 29.2011 35.1661 29.8488C35.2214 30.4965 34.7436 31.0691 34.0959 31.1244Z" fill="#407BFF"/>
</g>
<path d="M66.0424 2.88015L44.3115 3.92883L45.7563 33.8685L67.4872 32.8198L66.0424 2.88015Z" fill="#407BFF"/>
<path opacity="0.8" d="M66.0424 2.88015L44.3115 3.92883L45.7563 33.8685L67.4872 32.8198L66.0424 2.88015Z" fill="white"/>
<g opacity="0.4">
<path opacity="0.4" d="M62.1805 9.45431L48.7922 10.102C48.1445 10.1336 47.5916 9.63203 47.56 8.98433C47.5284 8.33664 48.03 7.78373 48.6777 7.75214L62.066 7.10444C62.7137 7.07285 63.2666 7.57442 63.2982 8.22211C63.3337 8.87375 62.8322 9.42271 62.1805 9.45431Z" fill="#407BFF"/>
<path opacity="0.4" d="M62.4217 14.4068L49.0334 15.0545C48.3857 15.0861 47.8328 14.5845 47.8012 13.9369C47.7696 13.2892 48.2712 12.7362 48.9189 12.7047L62.3072 12.057C62.9549 12.0254 63.5078 12.5269 63.5394 13.1746C63.571 13.8223 63.0694 14.3752 62.4217 14.4068Z" fill="#407BFF"/>
<path opacity="0.4" d="M52.9633 19.8253L49.2746 20.003C48.6269 20.0346 48.074 19.533 48.0424 18.8853C48.0108 18.2376 48.5124 17.6847 49.1601 17.6531L52.8488 17.4754C53.4965 17.4438 54.0494 17.9454 54.081 18.5931C54.1126 19.2408 53.611 19.7937 52.9633 19.8253Z" fill="#407BFF"/>
<path opacity="0.4" d="M60.1157 19.4777L56.427 19.6555C55.7793 19.6871 55.2264 19.1855 55.1948 18.5378C55.1632 17.8901 55.6647 17.3372 56.3124 17.3056L60.0011 17.1279C60.6488 17.0963 61.2017 17.5979 61.2333 18.2455C61.2649 18.8972 60.7634 19.4461 60.1157 19.4777Z" fill="#407BFF"/>
<path opacity="0.4" d="M62.8993 24.3078L49.511 24.9555C48.8633 24.9871 48.3104 24.4855 48.2788 23.8378C48.2472 23.1902 48.7487 22.6372 49.3964 22.6057L62.7847 21.958C63.4324 21.9264 63.9853 22.4279 64.0169 23.0756C64.0485 23.7233 63.547 24.2762 62.8993 24.3078Z" fill="#407BFF"/>
<path opacity="0.4" d="M59.4804 29.434L49.7531 29.904C49.1054 29.9356 48.5525 29.434 48.5209 28.7863C48.4894 28.1387 48.9909 27.5857 49.6386 27.5542L59.3659 27.0842C60.0136 27.0526 60.5665 27.5542 60.5981 28.2018C60.6297 28.8495 60.1281 29.4024 59.4804 29.434Z" fill="#407BFF"/>
</g>
<path d="M33.7098 26.4919L33.3623 25.1925C32.8726 23.3482 31.1151 22.2108 29.1325 22.4398L10.2585 24.6475C7.90473 24.924 6.04063 27.0132 6.09593 29.3196L7.1662 74.2791C7.20569 75.8588 8.54453 76.9883 10.1598 76.7988L77.6898 68.9001C79.3051 68.7105 80.5847 67.2769 80.5452 65.6971L79.6211 26.8315C79.5816 25.2518 78.2428 24.1223 76.6275 24.3118L37.4143 28.897C35.6726 29.1024 34.1403 28.1032 33.7098 26.4919Z" fill="#F19A2D"/>
</svg>
