<?xml version="1.0" encoding="utf-8"?>
<!-- Generator: Adobe Illustrator 24.0.2, SVG Export Plug-In . SVG Version: 6.00 Build 0)  -->
<svg version="1.1" id="Capa_1" xmlns="http://www.w3.org/2000/svg" xmlns:xlink="http://www.w3.org/1999/xlink" x="0px" y="0px"
	 viewBox="0 0 81 77" style="enable-background:new 0 0 81 77;" xml:space="preserve">
<style type="text/css">
	.st0{fill:#568CB0;}
	.st1{fill:#407BFF;}
	.st2{opacity:0.7;fill:#FFFFFF;enable-background:new    ;}
	.st3{opacity:0.4;}
	.st4{opacity:0.4;fill:#407BFF;enable-background:new    ;}
	.st5{opacity:0.8;fill:#FFFFFF;enable-background:new    ;}
	.st6{fill:#00A7DF;}
</style>
<path class="st0" d="M27.7,25.6l-0.5-1.3c-0.7-1.9-2.6-3.1-4.5-2.8L3.8,23.7c-2.4,0.3-4,2.4-3.8,4.8l5.4,45.9
	C5.6,76,7.1,77.2,8.7,77l67.5-7.9c1.6-0.2,2.8-1.7,2.6-3.3l-4.6-39.7c-0.2-1.6-1.7-2.8-3.3-2.6l-39.2,4.6
	C29.9,28.3,28.3,27.3,27.7,25.6z"/>
<path class="st1" d="M32.6,12.3l-21.3,4.3L17.1,46l21.3-4.3L32.6,12.3z"/>
<path class="st2" d="M32.6,12.3l-21.3,4.3L17.1,46l21.3-4.3L32.6,12.3z"/>
<g class="st3">
	<path class="st4" d="M29.7,19.4L16.6,22c-0.6,0.1-1.3-0.3-1.4-0.9c-0.1-0.6,0.3-1.3,0.9-1.4l13.1-2.6c0.6-0.1,1.3,0.3,1.4,0.9
		C30.8,18.7,30.4,19.3,29.7,19.4z"/>
	<path class="st4" d="M30.7,24.3l-13.1,2.6c-0.6,0.1-1.3-0.3-1.4-0.9c-0.1-0.6,0.3-1.3,0.9-1.4L30.2,22c0.6-0.1,1.3,0.3,1.4,0.9
		C31.8,23.5,31.3,24.1,30.7,24.3z"/>
	<path class="st4" d="M31.7,29.1l-13.1,2.6c-0.6,0.1-1.3-0.3-1.4-0.9c-0.1-0.6,0.3-1.3,0.9-1.4l13.1-2.6c0.6-0.1,1.3,0.3,1.4,0.9
		C32.7,28.4,32.3,29,31.7,29.1z"/>
	<path class="st4" d="M32.6,34l-13.1,2.6c-0.6,0.1-1.3-0.3-1.4-0.9C18,35,18.4,34.4,19,34.3l13.1-2.6c0.6-0.1,1.3,0.3,1.4,0.9
		C33.7,33.2,33.3,33.9,32.6,34z"/>
	<path class="st4" d="M30,39.6l-9.5,1.9c-0.6,0.1-1.3-0.3-1.4-0.9c-0.1-0.6,0.3-1.3,0.9-1.4l9.5-1.9c0.6-0.1,1.3,0.3,1.4,0.9
		C31.1,38.8,30.7,39.4,30,39.6z"/>
</g>
<path class="st1" d="M61.6,10l-21,1.6l2.2,28.8l21-1.6L61.6,10z"/>
<path class="st2" d="M61.6,10l-21,1.6l2.2,28.8l21-1.6L61.6,10z"/>
<g class="st3">
	<path class="st4" d="M58,16.4l-12.9,1c-0.6,0-1.2-0.4-1.2-1c0-0.6,0.4-1.2,1.1-1.2l12.9-1c0.6,0,1.2,0.4,1.2,1
		C59.1,15.8,58.6,16.4,58,16.4z"/>
	<path class="st4" d="M58.4,21.2l-12.9,1c-0.6,0-1.2-0.4-1.2-1c0-0.6,0.4-1.2,1.1-1.2l12.9-1c0.6,0,1.2,0.4,1.2,1
		C59.5,20.6,59,21.1,58.4,21.2z"/>
	<path class="st4" d="M49.4,26.6l-3.6,0.3c-0.6,0-1.2-0.4-1.2-1c0-0.6,0.4-1.2,1.1-1.2l3.6-0.3c0.6,0,1.2,0.4,1.2,1
		C50.4,26,50,26.6,49.4,26.6z"/>
	<path class="st4" d="M56.3,26.1l-3.6,0.3c-0.6,0-1.2-0.4-1.2-1c0-0.6,0.4-1.2,1.1-1.2l3.6-0.3c0.6,0,1.2,0.4,1.2,1
		C57.4,25.5,56.9,26.1,56.3,26.1z"/>
	<path class="st4" d="M59.1,30.7l-12.9,1c-0.6,0-1.2-0.4-1.2-1c0-0.6,0.4-1.2,1.1-1.2l12.9-1c0.6,0,1.2,0.4,1.2,1
		C60.2,30.1,59.7,30.7,59.1,30.7z"/>
	<path class="st4" d="M55.9,35.7l-9.4,0.7c-0.6,0-1.2-0.4-1.2-1c0-0.6,0.4-1.2,1.1-1.2l9.4-0.7c0.6,0,1.2,0.4,1.2,1
		C57,35.1,56.5,35.7,55.9,35.7z"/>
</g>
<path class="st1" d="M42.6,11L21,12.9l2.6,29.9l21.7-1.9L42.6,11z"/>
<path class="st5" d="M42.6,11L21,12.9l2.6,29.9l21.7-1.9L42.6,11z"/>
<g class="st3">
	<path class="st4" d="M39,17.7l-13.4,1.2c-0.6,0.1-1.2-0.4-1.3-1.1c-0.1-0.6,0.4-1.2,1.1-1.3l13.4-1.2c0.6-0.1,1.2,0.4,1.3,1.1
		C40.2,17.1,39.7,17.7,39,17.7z"/>
	<path class="st4" d="M39.5,22.7l-13.4,1.2c-0.6,0.1-1.2-0.4-1.3-1.1c-0.1-0.6,0.4-1.2,1.1-1.3l13.4-1.2c0.6-0.1,1.2,0.4,1.3,1.1
		C40.6,22,40.1,22.6,39.5,22.7z"/>
	<path class="st4" d="M39.9,27.6l-13.4,1.2c-0.6,0.1-1.2-0.4-1.3-1.1c-0.1-0.6,0.4-1.2,1.1-1.3l13.4-1.2c0.6-0.1,1.2,0.4,1.3,1.1
		C41,27,40.5,27.5,39.9,27.6z"/>
	<path class="st4" d="M40.3,32.5L27,33.7c-0.6,0.1-1.2-0.4-1.3-1.1c-0.1-0.6,0.4-1.2,1.1-1.3l13.4-1.2c0.6-0.1,1.2,0.4,1.3,1.1
		C41.5,31.9,41,32.5,40.3,32.5z"/>
	<path class="st4" d="M37.1,37.8l-9.7,0.8c-0.6,0.1-1.2-0.4-1.3-1.1c-0.1-0.6,0.4-1.2,1.1-1.3l9.7-0.8c0.6-0.1,1.2,0.4,1.3,1.1
		C38.2,37.2,37.8,37.7,37.1,37.8z"/>
</g>
<path class="st1" d="M67.3,13.1l-21.1-0.3l-0.4,28.9L66.9,42L67.3,13.1z"/>
<path class="st5" d="M67.3,13.1l-21.1-0.3l-0.4,28.9L66.9,42L67.3,13.1z"/>
<g class="st3">
	<path class="st4" d="M63.2,19.2l-13-0.2c-0.6,0-1.1-0.5-1.1-1.1c0-0.6,0.5-1.1,1.2-1.1l13,0.2c0.6,0,1.1,0.5,1.1,1.1
		C64.3,18.7,63.8,19.2,63.2,19.2z"/>
	<path class="st4" d="M63.1,24l-13-0.2c-0.6,0-1.1-0.5-1.1-1.1c0-0.6,0.5-1.1,1.2-1.1l13,0.2c0.6,0,1.1,0.5,1.1,1.1
		C64.3,23.5,63.7,24,63.1,24z"/>
	<path class="st4" d="M53.6,28.6l-3.6,0c-0.6,0-1.1-0.5-1.1-1.1c0-0.6,0.5-1.1,1.2-1.1l3.6,0c0.6,0,1.1,0.5,1.1,1.1
		C54.8,28.1,54.3,28.6,53.6,28.6z"/>
	<path class="st4" d="M60.6,28.7l-3.6,0c-0.6,0-1.1-0.5-1.1-1.1c0-0.6,0.5-1.1,1.2-1.1l3.6,0c0.6,0,1.1,0.5,1.1,1.1
		C61.7,28.2,61.2,28.7,60.6,28.7z"/>
	<path class="st4" d="M63,33.5l-13-0.2c-0.6,0-1.1-0.5-1.1-1.1c0-0.6,0.5-1.1,1.2-1.1l13,0.2c0.6,0,1.1,0.5,1.1,1.1
		C64.1,33,63.6,33.5,63,33.5z"/>
	<path class="st4" d="M59.4,38.3l-9.4-0.1c-0.6,0-1.1-0.5-1.1-1.1c0-0.6,0.5-1.1,1.2-1.1l9.4,0.1c0.6,0,1.1,0.5,1.1,1.1
		C60.5,37.8,60,38.3,59.4,38.3z"/>
</g>
<path class="st6" d="M33.7,26.5l-0.3-1.3c-0.5-1.8-2.2-3-4.2-2.8l-18.9,2.2C7.9,24.9,6,27,6.1,29.3l1.1,45c0,1.6,1.4,2.7,3,2.5
	l67.5-7.9c1.6-0.2,2.9-1.6,2.9-3.2l-0.9-38.9c0-1.6-1.4-2.7-3-2.5l-39.2,4.6C35.7,29.1,34.1,28.1,33.7,26.5z"/>
</svg>
